<?xml version="1.0" encoding="utf-8"?>
<!-- Generator: Adobe Illustrator 26.0.1, SVG Export Plug-In . SVG Version: 6.00 Build 0)  -->
<svg version="1.1" id="Layer_1" xmlns="http://www.w3.org/2000/svg" xmlns:xlink="http://www.w3.org/1999/xlink" x="0px" y="0px"
	 viewBox="0 0 462.9 395.7" style="enable-background:new 0 0 462.9 395.7;" xml:space="preserve">
<style type="text/css">
	.st0{opacity:0.16;}
	.st1{fill:#B8E1ED;}
	.st2{opacity:0.7;}
	.st3{opacity:0.2;fill:#263238;enable-background:new    ;}
	.st4{opacity:0.2;enable-background:new    ;}
	.st5{fill:#FFFFFF;stroke:#263238;stroke-miterlimit:10;}
	.st6{fill:#263238;stroke:#FFFFFF;stroke-miterlimit:10;}
	.st7{fill:#7EE1ED;}
	.st8{opacity:0.2;}
	.st9{fill:#FFFFFF;}
	.st10{fill:#23E1ED;}
	.st11{fill:#263238;}
	.st12{clip-path:url(#SVGID_00000111890143291062248660000008130686285921947777_);}
	.st13{fill:#9AE1ED;}
	.st14{opacity:0.5;fill:#9AE1ED;enable-background:new    ;}
	.st15{opacity:0.5;}
	.st16{fill:none;}
	.st17{fill:none;stroke:#263238;stroke-miterlimit:10;}
	.st18{clip-path:url(#SVGID_00000068652006688844181190000005551245093045834410_);}
	.st19{opacity:0.5;fill:#FFFFFF;enable-background:new    ;}
	.st20{fill:none;stroke:#263238;stroke-linecap:round;stroke-linejoin:round;}
	.st21{fill:#FFFFFF;stroke:#263238;stroke-linecap:round;stroke-linejoin:round;}
	.st22{fill:#757575;stroke:#263238;stroke-linecap:round;stroke-linejoin:round;}
	.st23{fill:#999999;stroke:#263238;stroke-linecap:round;stroke-linejoin:round;}
	.st24{fill:#BFBFBF;stroke:#263238;stroke-linecap:round;stroke-linejoin:round;}
	.st25{opacity:0.1;fill:#FFFFFF;enable-background:new    ;}
	.st26{clip-path:url(#SVGID_00000071542633074980075270000014207596169928114365_);}
</style>
<g id="Background_Simple" class="st0">
	<path class="st1" d="M462.9,190.7c0,9.6-1.1,19.2-3.3,28.5c-0.8,3.1-1.7,6.1-2.7,9.1c-0.3,0.9-0.6,1.7-0.9,2.6
		c-0.3,0.7-0.5,1.4-0.8,2.1l-0.2,0.6c-0.3,0.7-0.6,1.4-0.9,2.1l-0.2,0.4c-0.3,0.7-0.6,1.4-0.9,2.1l-0.4,0.9
		c-0.3,0.6-0.6,1.2-0.9,1.8s-0.6,1.3-1,1.9c-0.1,0.2-0.2,0.5-0.3,0.7l-0.9,1.6l-0.7,1.3c-1.1,2-2.2,3.9-3.3,5.8
		c-0.5,0.8-1,1.6-1.4,2.3c-0.1,0.2-0.2,0.4-0.4,0.6c-0.6,0.9-1.1,1.8-1.7,2.6c-0.5,0.7-0.9,1.4-1.4,2.1l-1.3,1.9l-0.3,0.4
		c-0.4,0.6-0.9,1.3-1.4,1.9c-0.6,0.8-1.1,1.6-1.7,2.3c-0.1,0.2-0.2,0.3-0.3,0.5c-0.7,0.9-1.3,1.8-2,2.6c-0.4,0.5-0.8,1-1.2,1.6
		c-0.7,1-1.5,1.9-2.2,2.8s-1.4,1.8-2.2,2.7l-0.2,0.3c-0.7,0.9-1.4,1.8-2.2,2.6c-0.2,0.3-0.4,0.5-0.7,0.8c-0.7,0.8-1.4,1.6-2,2.4
		c-2,2.3-3.9,4.6-5.9,6.9c-4.1,4.7-8.2,9.3-12.4,13.9c-3.5,3.8-7.1,7.6-10.7,11.3c-17.4,17.9-36.3,34.6-56.8,47.9
		c-2.5,1.6-5.1,3.3-7.7,4.8l-2.8,1.7l-0.5,0.3c-1,0.6-2,1.1-3,1.6s-2,1.1-3,1.6l-1.4,0.7c-2,1-4,2-6,3c-1.1,0.5-2.2,1-3.3,1.5
		c-1.1,0.5-2,0.9-3,1.4l-1.2,0.5c-0.9,0.4-1.9,0.8-2.8,1.2c-1.8,0.7-3.6,1.4-5.5,2.1l-2.1,0.8l-1.2,0.4l-2,0.6l-1.7,0.5h-0.1
		c-1.1,0.4-2.3,0.7-3.4,1c-1.8,0.5-3.6,1-5.4,1.5c-1.2,0.3-2.4,0.6-3.6,0.9c-1.2,0.3-2.3,0.5-3.4,0.7l-0.3,0
		c-1.2,0.2-2.4,0.5-3.6,0.7l-1.8,0.3l-1.8,0.3c-0.5,0.1-1.1,0.2-1.7,0.2l-2,0.3c-7.1,0.9-14.2,1.3-21.4,1.2h-1.3
		c-6.5-0.1-12.9-0.6-19.4-1.5l-1.4-0.2l-2.4-0.3l-1.9-0.3c-2.7-0.4-5.3-0.9-8-1.4c-0.6-0.1-1.2-0.2-1.8-0.4
		c-1.8-0.4-3.6-0.8-5.3-1.2c-1.2-0.3-2.4-0.6-3.6-0.9l-1.8-0.5l-1.8-0.5c-2.4-0.6-4.7-1.3-7-2c-2.7-0.8-5.4-1.7-8.1-2.6l-2.9-1
		c-3-1.1-6-2.2-9-3.4l-1.6-0.7l-1.3-0.6l-0.9-0.4c-1.9-0.9-4-1.9-6.3-3.1l-1.2-0.6c-1.4-0.7-2.8-1.5-4.3-2.3
		c-3.1-1.7-6.5-3.6-10-5.7c-40-23.5-101.3-67.7-115.6-84.5c-0.7-0.9-1.4-1.7-2.2-2.6c-0.5-0.7-1.1-1.4-1.6-2.1s-1-1.3-1.4-1.9
		s-0.8-1.1-1.2-1.7s-0.8-1.1-1.1-1.6l-0.1-0.1c-0.5-0.7-0.9-1.3-1.3-2s-0.8-1.3-1.2-2c-0.2-0.3-0.4-0.6-0.6-1
		c-0.4-0.7-0.9-1.5-1.3-2.2l0,0c-0.5-0.8-0.9-1.6-1.4-2.5c-0.8-1.5-1.5-2.9-2.2-4.4l-0.5-1.1c-1.4-3-2.7-6.1-3.7-9.3
		c-0.4-1.1-0.7-2.2-1.1-3.3c-0.4-1.4-0.8-2.9-1.2-4.3c-0.1-0.3-0.1-0.6-0.2-0.9c-0.2-0.8-0.4-1.5-0.5-2.3c-0.2-1.1-0.4-2.1-0.6-3.2
		c0-0.3-0.1-0.5-0.1-0.8c-0.1-0.5-0.2-1.1-0.2-1.7s-0.2-1.3-0.2-2c0-0.2,0-0.5-0.1-0.7c-0.1-0.6-0.1-1.1-0.1-1.7c0,0,0-0.1,0-0.1
		c0-0.7-0.1-1.4-0.1-2c0-0.1,0-0.1,0-0.2c0-0.7,0-1.4-0.1-2.1v-2c0-1,0-2.1,0.1-3.1c0-0.7,0.1-1.4,0.1-2c0.1-1.3,0.3-2.7,0.5-4
		c0.1-0.7,0.2-1.4,0.3-2c0.2-1.3,0.5-2.7,0.9-4c0.9-3.5,2-6.9,3.5-10.2c1.1-2.5,2.3-5,3.6-7.3c0.1-0.2,0.2-0.4,0.3-0.6
		c5.4-9.5,12.7-17.9,21-25.7c0.9-0.8,1.8-1.7,2.7-2.5s1.9-1.7,2.9-2.6l0.2-0.2c1.5-1.3,3.1-2.7,4.7-4c2.5-2.1,4.9-4.1,7.5-6.1
		l0.2-0.2c2.2-1.7,4.3-3.4,6.5-5.1c3.4-2.6,6.8-5.2,10.2-7.9l2.6-2.1c1-0.8,1.9-1.5,2.9-2.3c8.5-6.9,16.5-14.5,23.9-22.6
		c1.4-1.5,2.8-3.1,4.1-4.6c0.7-0.7,1.3-1.5,1.9-2.2c9.1-10.4,17.6-20.9,27.1-30.8c2.3-2.4,4.6-4.7,6.9-7c2-1.9,4-3.8,6.1-5.6
		c2.4-2.3,4.8-4.4,7.4-6.4c3.6-2.8,7.3-5.4,11.3-7.9c1-0.6,2-1.2,2.9-1.8c99.7-62,173.1-41.7,222.1,0c3.7,3.2,7.3,6.4,10.7,9.8
		c2.1,2,4.1,4.1,6,6.2c0.2,0.2,0.4,0.4,0.6,0.7c1.4,1.5,2.7,2.9,4,4.4l1.1,1.3c0.6,0.7,1.1,1.3,1.7,2s1.4,1.6,2,2.4l1.3,1.6
		c2.7,3.4,5.3,6.8,7.8,10.2c0.5,0.7,1,1.4,1.5,2.1c3.4,4.8,6.6,9.6,9.5,14.5l1.2,2.1c0.4,0.7,0.8,1.4,1.2,2.1l1.2,2.1
		c0.4,0.7,0.8,1.4,1.2,2.1l1.1,2c0.4,0.7,0.8,1.4,1.1,2l1.1,2c0.4,0.7,0.7,1.4,1.1,2l1,2l1,2c1.3,2.7,2.6,5.3,3.7,7.8
		c0.6,1.3,1.2,2.6,1.7,3.9c2.5,5.7,4.6,11.2,6.4,16.3c0,0,0,0,0,0.1c0.2,0.5,0.3,1,0.5,1.4c0.2,0.4,0.3,1,0.5,1.5
		c0.2,0.5,0.2,0.8,0.4,1.1c0.2,0.6,0.4,1.1,0.5,1.7c0.2,0.6,0.4,1.2,0.5,1.8c0.3,1.1,0.6,2.2,1,3.4c0.3,0.9,0.5,1.9,0.8,2.9
		c0,0.2,0.1,0.4,0.1,0.5c0,0.2,0.1,0.3,0.1,0.4c0.1,0.6,0.3,1.1,0.4,1.7c0.4,1.5,0.7,3,1,4.5c0.2,0.8,0.3,1.6,0.5,2.4l0.1,0.5
		c0.2,0.8,0.3,1.5,0.4,2.3c0.2,1,0.4,2.1,0.5,3.1c0.1,0.8,0.2,1.6,0.4,2.4c0,0.1,0,0.2,0,0.4c0.1,0.5,0.1,1,0.2,1.6s0.1,0.9,0.2,1.3
		c0.2,1.6,0.3,3.2,0.5,4.8l0.1,1.1l0.1,1.8c0,0.7,0.1,1.3,0.1,2c0,0.5,0,1,0.1,1.6c0,0.8,0,1.5,0.1,2.3S462.9,189.8,462.9,190.7z"/>
	<g class="st2">
		<path class="st1" d="M462.9,190.7c0,9.6-1.1,19.2-3.3,28.5c-0.8,3.1-1.7,6.1-2.7,9.1c-0.3,0.9-0.6,1.7-0.9,2.6
			c-0.3,0.7-0.5,1.4-0.8,2.1l-0.2,0.6c-0.3,0.7-0.6,1.4-0.9,2.1l-0.2,0.4c-0.3,0.7-0.6,1.4-0.9,2.1l-0.4,0.9
			c-0.3,0.6-0.6,1.2-0.9,1.8s-0.6,1.3-1,1.9c-0.1,0.2-0.2,0.5-0.3,0.7l-0.9,1.6l-0.7,1.3c-1.1,2-2.2,3.9-3.3,5.8
			c-0.5,0.8-1,1.6-1.4,2.3c-0.1,0.2-0.2,0.4-0.4,0.6c-0.6,0.9-1.1,1.8-1.7,2.6c-0.5,0.7-0.9,1.4-1.4,2.1l-1.3,1.9l-0.3,0.4
			c-0.4,0.6-0.9,1.3-1.4,1.9c-0.6,0.8-1.1,1.6-1.7,2.3c-0.1,0.2-0.2,0.3-0.3,0.5c-0.7,0.9-1.3,1.8-2,2.6c-0.4,0.5-0.8,1-1.2,1.6
			c-0.7,1-1.5,1.9-2.2,2.8s-1.4,1.8-2.2,2.7l-0.2,0.3c-0.7,0.9-1.4,1.8-2.2,2.6c-0.2,0.3-0.4,0.5-0.7,0.8c-0.7,0.8-1.4,1.6-2,2.4
			c-2,2.3-3.9,4.6-5.9,6.9c-4.1,4.7-8.2,9.3-12.4,13.9c-3.5,3.8-7.1,7.6-10.7,11.3c-17.4,17.9-36.3,34.6-56.8,47.9
			c-2.5,1.6-5.1,3.3-7.7,4.8l-2.8,1.7l-0.5,0.3c-1,0.6-2,1.1-3,1.6s-2,1.1-3,1.6l-1.4,0.7c-2,1-4,2-6,3c-1.1,0.5-2.2,1-3.3,1.5
			c-1.1,0.5-2,0.9-3,1.4l-1.2,0.5c-0.9,0.4-1.9,0.8-2.8,1.2c-1.8,0.7-3.6,1.4-5.5,2.1l-2.1,0.8l-1.2,0.4l-2,0.6l-1.7,0.5h-0.1
			c-1.1,0.4-2.3,0.7-3.4,1c-1.8,0.5-3.6,1-5.4,1.5c-1.2,0.3-2.4,0.6-3.6,0.9c-1.2,0.3-2.3,0.5-3.4,0.7l-0.3,0
			c-1.2,0.2-2.4,0.5-3.6,0.7l-1.8,0.3l-1.8,0.3c-0.5,0.1-1.1,0.2-1.7,0.2l-2,0.3c-7.1,0.9-14.2,1.3-21.4,1.2h-1.3
			c-6.5-0.1-12.9-0.6-19.4-1.5l-1.4-0.2l-2.4-0.3l-1.9-0.3c-2.7-0.4-5.3-0.9-8-1.4c-0.6-0.1-1.2-0.2-1.8-0.4
			c-1.8-0.4-3.6-0.8-5.3-1.2c-1.2-0.3-2.4-0.6-3.6-0.9l-1.8-0.5l-1.8-0.5c-2.4-0.6-4.7-1.3-7-2c-2.7-0.8-5.4-1.7-8.1-2.6l-2.9-1
			c-3-1.1-6-2.2-9-3.4l-1.6-0.7l-1.3-0.6l-0.9-0.4c-1.9-0.9-4-1.9-6.3-3.1l-1.2-0.6c-1.4-0.7-2.8-1.5-4.3-2.3
			c-3.1-1.7-6.5-3.6-10-5.7c-40-23.5-101.3-67.7-115.6-84.5c-0.7-0.9-1.4-1.7-2.2-2.6c-0.5-0.7-1.1-1.4-1.6-2.1s-1-1.3-1.4-1.9
			s-0.8-1.1-1.2-1.7s-0.8-1.1-1.1-1.6l-0.1-0.1c-0.5-0.7-0.9-1.3-1.3-2s-0.8-1.3-1.2-2c-0.2-0.3-0.4-0.6-0.6-1
			c-0.4-0.7-0.9-1.5-1.3-2.2l0,0c-0.5-0.8-0.9-1.6-1.4-2.5c-0.8-1.5-1.5-2.9-2.2-4.4l-0.5-1.1c-1.4-3-2.7-6.1-3.7-9.3
			c-0.4-1.1-0.7-2.2-1.1-3.3c-0.4-1.4-0.8-2.9-1.2-4.3c-0.1-0.3-0.1-0.6-0.2-0.9c-0.2-0.8-0.4-1.5-0.5-2.3c-0.2-1.1-0.4-2.1-0.6-3.2
			c0-0.3-0.1-0.5-0.1-0.8c-0.1-0.5-0.2-1.1-0.2-1.7s-0.2-1.3-0.2-2c0-0.2,0-0.5-0.1-0.7c-0.1-0.6-0.1-1.1-0.1-1.7c0,0,0-0.1,0-0.1
			c0-0.7-0.1-1.4-0.1-2c0-0.1,0-0.1,0-0.2c0-0.7,0-1.4-0.1-2.1c0-1.7,0-3.5,0.1-5.2c0-0.7,0.1-1.4,0.1-2c0.1-1.3,0.3-2.7,0.5-4
			c0.1-0.7,0.2-1.4,0.3-2c0.2-1.3,0.5-2.7,0.9-4c0.9-3.5,2-6.9,3.5-10.2c1.1-2.5,2.3-5,3.6-7.3c0.1-0.2,0.2-0.4,0.3-0.6
			c5.4-9.5,12.7-17.9,21-25.7l1.4-1.3l1.3-1.1c1-0.9,1.9-1.7,2.9-2.6l0.2-0.2c1.5-1.3,3.1-2.7,4.7-4c2.5-2.1,4.9-4.1,7.4-6.1
			l0.2-0.2c2.2-1.7,4.3-3.4,6.5-5.1l3.3-2.5c2.3-1.8,4.6-3.6,6.9-5.3l2.6-2.1c1-0.8,1.9-1.5,2.9-2.3c8.5-6.9,16.5-14.5,23.9-22.6
			c1.4-1.5,2.8-3.1,4.1-4.6c0.7-0.7,1.3-1.5,1.9-2.2c9.1-10.4,17.6-20.9,27.1-30.8c2.3-2.4,4.6-4.7,6.9-7c2-1.9,4-3.8,6.1-5.6
			c2.4-2.2,4.8-4.3,7.4-6.3c3.6-2.8,7.3-5.4,11.3-7.9c1-0.6,2-1.2,2.9-1.8c99.7-62,173.1-41.7,222.1,0c3.7,3.2,7.3,6.4,10.7,9.8
			c2.1,2,4.1,4.1,6,6.2c0.2,0.2,0.4,0.4,0.6,0.7c1.4,1.5,2.7,2.9,4,4.4l1.1,1.3c0.6,0.7,1.1,1.3,1.7,2s1.4,1.6,2,2.4l1.3,1.6
			c2.7,3.4,5.3,6.8,7.8,10.2c0.5,0.7,1,1.4,1.5,2.1c3.4,4.8,6.6,9.6,9.5,14.5l1.2,2.1c0.4,0.7,0.8,1.4,1.2,2.1l1.2,2.1
			c0.4,0.7,0.8,1.4,1.2,2.1l1.1,2c0.4,0.7,0.8,1.4,1.1,2l1.1,2c0.4,0.7,0.7,1.4,1.1,2l1,2l1,2c1.3,2.7,2.6,5.3,3.7,7.8
			c0.6,1.3,1.2,2.6,1.7,3.9c2.5,5.7,4.6,11.2,6.4,16.3c0,0,0,0,0,0.1c0.2,0.5,0.3,1,0.5,1.4c0.2,0.4,0.3,1,0.5,1.5
			c0.2,0.5,0.2,0.8,0.4,1.1c0.2,0.6,0.4,1.1,0.5,1.7c0.2,0.6,0.4,1.2,0.5,1.8c0.3,1.1,0.6,2.2,1,3.4c0.3,0.9,0.5,1.9,0.8,2.9
			c0,0.2,0.1,0.4,0.1,0.5c0,0.2,0.1,0.3,0.1,0.4c0.1,0.6,0.3,1.1,0.4,1.7c0.4,1.5,0.7,3,1,4.5c0.2,0.8,0.3,1.6,0.5,2.4l0.1,0.5
			c0.2,0.8,0.3,1.5,0.4,2.3c0.2,1,0.4,2.1,0.5,3.1c0.1,0.8,0.2,1.6,0.4,2.4c0,0.1,0,0.2,0,0.4c0.1,0.5,0.1,1,0.2,1.6
			s0.1,0.9,0.2,1.3c0.2,1.6,0.3,3.2,0.5,4.8l0.1,1.1l0.1,1.8c0,0.7,0.1,1.3,0.1,2c0,0.5,0,1,0.1,1.6c0,0.8,0,1.5,0.1,2.3
			S462.9,189.8,462.9,190.7z"/>
	</g>
</g>
<g id="Plants">
	<path class="st3" d="M13.3,210.3C13.1,210.1,13.1,210,13.3,210.3z"/>
	<path class="st4" d="M106.8,201.4c-1.1,6.8-6,12.4-12.6,14.5l-2.5,0.8c-8.9,12.6-24.6,18-37.9,10.2l-3.9-2.3l-10.9-13h-0.1
		c-3.5,0.7-7.4,0.2-9.9-2.2c-0.3,1.8-2.1,3.1-4,2.7c-1.8-0.3-3.1-2.1-2.7-4c0.1-0.8,0.6-1.5,1.2-2c-2.2,1.9-5.6,1-7.7-1.1
		c-0.1-5.8,0.6-11.6,2-17.3c0.9-3.5,2-6.9,3.4-10.2c1.1-2.5,2.3-5,3.6-7.3c0.1-0.2,0.2-0.4,0.3-0.6c2-3.5,4.2-6.8,6.7-10l1.3-1.1
		c1-0.9,1.9-1.7,2.9-2.6l0.2-0.2c1.5-1.3,3.1-2.7,4.7-4c2.5-2.1,4.9-4.1,7.4-6.1l0.2-0.2c2.2-1.7,4.3-3.4,6.5-5.1l3.3-2.5
		c0.7,0.1,1.3,0.2,1.9,0.4c2.7,0.9,3.1,3.4,5,5.1c2.5,2.2,4.8-1.5,8.6-1.4c11.7,0.4,7.1,12.3,12.8,10.8c24.6-6.5,20.4,24.9,9.8,31.9
		C102.6,189.8,108,193.2,106.8,201.4z"/>
	<ellipse class="st5" cx="54" cy="190.4" rx="41.4" ry="40.9"/>
	<ellipse class="st6" cx="54" cy="188.7" rx="37.8" ry="37.3"/>
	<path class="st7" d="M13.4,203.4c-2.4,1.5-3.1,6.5-1.2,8.6c1.9,2.2,5.5,0.5,6.2-2.9c0.2,0.6,0.8,0.9,1.4,0.7
		c0.2-0.1,0.5-0.2,0.6-0.4c0.4-0.6,0.4-1.4,0.1-2.1c-0.2-0.1-0.1-0.3,0,0c1.2,1,3.3-0.1,3.6-2.2c-0.9,5.5,4.1,10.3,7.8,7.5
		c-1.1,2.3,0.3,5.4,2.2,6s3.9-0.5,5.8-1.8s3.7-2.7,5.7-2.8c1.7-0.1,3.3,0.9,5,1.5c5.3,1.8,11.4-0.6,15.4-6.1c2.7,4.5,9.2,2.9,11-2.8
		c0.4,2.6,2.2,4.7,4.2,4.7s4.1-1.9,4.8-4.6l0,0c0,2.5,2.3,3.7,3.9,2.1c2.3-2.4,3.1-5.7,2.3-8.9c2.7-0.1,5.4-3.3,5.8-6.9
		s-1.4-7.3-4.1-8.1c4.5-1.9,8-8,8.2-14.3s-3.1-12.1-7.5-13.6c-1.8-0.7-3.8-0.3-5.1,1.1c-0.5-3.6-2.2-6.8-4.5-8.4
		c-3.8-2.6-9.1-0.8-11.9,4c1.4-2.6,1.5-5.7,0.2-8.4c-1.3-2.3-3.8-3.3-5.9-2.2c-0.4-3.8-3.4-6.6-6.3-5.8s-5.2,4.8-5,8.7
		c-0.3-3.1-4-3.9-5.3-1.3c0.1,0.2-0.1,0.1,0,0c-1.8-3.9-5.6-5.8-9-4.7c-3.7,1.2-6.8,5.8-7.3,10.9c-2.6-2.3-6.6-2.2-9,0.2
		c-2.7,2.5-4.3,7.1-3.8,11.3c-2.9-2.8-7.7-1.3-9.7,3.1s-0.6,10.6,2.7,12.4c-2.3,0.4-4.3,3.4-4.3,6.5s2,5.7,4.3,5.6
		c-2.3,0.2-4.5,2.9-4.9,6.1S11.1,202.8,13.4,203.4z"/>
	<g class="st8">
		<path class="st9" d="M51.5,189.1c-1.1-1-2.6-1.4-4-1c-1.6,0.6-2.7,2-3,3.7c-0.3,1.8,0.5,3.8,1.9,4.1c1.7,0.4,3.4-1.5,5.1-1.3
			c0.6,0.1,1.2,0.3,1.8,0.6c2.5,0.7,5-1.5,7.1-3.6c0.8-0.7,1.5-1.6,2-2.5c0.5-1,0.6-2.2,0.3-3.3c-0.6-1.4-2.1-1.5-3.4-1.2
			c-2.7,0.6-5.1,2-7,4.1c0.1-0.5,0.1-1,0.2-1.5L51.5,189.1z"/>
		<path class="st9" d="M87.6,184.2c-0.6-0.6-1.3-1-2.1-1.3c-0.9-0.2-1.8,0.2-2.3,1c-0.6,1.2-0.4,2.8,0.6,3.8c0.9,0.7,2,1.1,3.1,1.2
			c1.1,0.1,2.6,0.1,3.2-1.2c0.4-1,0.2-2.1-0.5-2.9c-0.6-0.6-1.4-1-2.2-1.3L87.6,184.2z"/>
		<path class="st9" d="M31,163.7c-2.5,1.7-4.2,4.3-4.7,7.3c-0.2,0.9-0.2,2.1,0.5,2.6c0.5,0.3,1.1,0.3,1.5,0l6.6-2.4
			c-1.1,0.5-2.1,1.3-3,2.2c-0.9,1.1-1.4,2.5-1.2,3.9c0.2,1.5,1.5,2.5,3,2.4c1.4-0.3,2.7-1,3.7-2.1c1.3-1.1,2.2-2.7,2.4-4.4
			c0-1.8-1.7-3.4-2.8-2.1c2.6-1.1,5-2.7,7.1-4.6c0.9-0.7,1.6-1.6,2.1-2.6c0.6-1.1,0.7-2.3,0.3-3.4c-2.2-5.1-5.2,2.8-6.5,3.5
			C37.3,165.5,34.4,161.8,31,163.7z"/>
		<path class="st9" d="M20.4,186.7c-0.3,1-0.1,2.1,0.5,2.9c0.5,0.5,1.4,0.4,1.8-0.1c0.1-0.2,0.2-0.3,0.3-0.6c-1.6,0.6-3,1.7-4,3.1
			c-1,1.6-0.8,4.4,0.7,4.9c0.9,0.3,1.9-0.3,2.8-0.9c2.5-1.9,4.8-3.9,6.9-6.1c-0.6,1.7,0.3,3.4,2,4c0.2,0.1,0.3,0.1,0.5,0.1
			c1.6,0.1,3.2-1.1,4.6-2.3c1.8-1.4,3.8-3.6,3.4-6.1c-0.3-1.6-1.8-2.8-3.4-2.5c-0.3,0-0.5,0.1-0.8,0.2c-1.7,0.8-3,2.6-4.2,4.3
			c1-1.8-0.3-4.2-1.9-4.4s-3.2,1.1-4.2,2.7c1.9-1.4,2.3-4.8-0.1-5C23.6,180.6,20.8,185,20.4,186.7z"/>
		<path class="st9" d="M70.9,176.1c-1.4-0.6-3.1,0.7-3.5,2.5s0.6,3.9,2.1,4.1c-1.2,0.3-2.2,1-2.8,2c-0.4,0.6-0.7,1.4-0.6,2.1
			c0.1,1,0.9,1.8,1.9,1.8c0.9-0.1,1.8-0.5,2.6-1.1c-0.9,0.1-1.8,0.5-2.6,1.1c-0.8,0.8-1,2-0.4,3c0.5,0.6,1.4,0.5,2.1,0.2
			c1.7-0.7,3.2-1.9,4.4-3.4c0.7,1.3,2.2,1.9,3.6,1.7c1.6-0.6,2.5-2.3,2.1-3.9c-0.2-1.1-1.1-1.8-2.2-1.9c-1,0-2,0.3-2.9,0.8
			c1.1-0.9,1.9-2.1,2.4-3.4c0.4-1.4-0.3-3.3-1.5-3.1c-1.3,0.2-2,2.5-3.1,3.4C71.2,180.5,73.7,177.2,70.9,176.1z"/>
		<path class="st9" d="M47.5,170.6c-1.5,1.4-2.1,3.9-2,6.2c0.1,2.5,0.9,5.2,2.7,6.1c2.4,1.2,5.4-1.5,5.9-4.8
			c0.5-3.1-0.8-6.2-3.4-7.9C49.6,169.6,48.4,169.8,47.5,170.6z"/>
		<path class="st9" d="M64.2,166.9l0.6,0.6c-0.8-1.2-2.4-1.6-3.6-0.8c-0.3,0.2-0.5,0.4-0.7,0.7c-1.2,1.6-1.3,3.9-0.1,5.6
			c1,1.1,2.8,1.1,3.8,0.1c0.2-0.2,0.4-0.5,0.5-0.7c1.9,0.9,4.2,0.2,5.2-1.6c1.2-1.9,1-5.2-0.6-6.3s-4.2,0.9-4,3.2l-0.7-1L64.2,166.9
			z"/>
		<path class="st9" d="M82.6,169.5c-1.4,1.5-2.4,3.3-2.9,5.3c-0.5,2.1,0.2,4.6,1.8,5s3.1-1.4,4.1-3.1c1-1.6,1.4-3.5,1.1-5.4
			c-0.4-1.8-2.4-2.7-3.5-1.3L82.6,169.5z"/>
		<path class="st9" d="M56.3,158.8c-0.4-1.2-1.6-1.9-2.9-1.6c-0.3,0.1-0.6,0.3-0.9,0.5c-1.3,1.3-1.8,3.2-1.3,5
			c0.4,1.6,1.7,2.7,3.3,2.9c2,0,3.7-1.7,3.6-3.7c0-0.1,0-0.2,0-0.3c0.7,1.2,2.1,1.8,3.4,1.5c1.3-0.4,2.6-1,3.6-1.9
			c1.5-1.2,3.2-3,3.1-5.2c0-1.6-1.2-2.9-2.8-3.1c-1.5,0.1-2.9,0.8-3.9,2.1c-0.8,0.9-1.6,2.1-2.5,3s-2.2,1.4-3.1,0.8L56.3,158.8z"/>
	</g>
</g>
<g id="Keyboard">
	<rect x="126.8" y="220.8" class="st10" width="230.7" height="97.2"/>
	<rect x="131.6" y="226.6" class="st5" width="21.7" height="12"/>
	<rect x="318" y="285.2" class="st5" width="34.2" height="12"/>
	<rect x="331" y="241.6" class="st5" width="21.1" height="12"/>
	<rect x="131.6" y="270.4" class="st5" width="21.7" height="12"/>
	<rect x="131.6" y="255.9" class="st5" width="17.6" height="12"/>
	<rect x="131.6" y="241.3" class="st5" width="12" height="12"/>
	<rect x="147" y="241.3" class="st5" width="12" height="12"/>
	<rect x="162.3" y="241.3" class="st5" width="12" height="12"/>
	<rect x="177.6" y="241.3" class="st5" width="12" height="12"/>
	<rect x="193" y="241.3" class="st5" width="12" height="12"/>
	<rect x="208.3" y="241.3" class="st5" width="12" height="12"/>
	<rect x="223.6" y="241.3" class="st5" width="12" height="12"/>
	<rect x="239" y="241.3" class="st5" width="12" height="12"/>
	<rect x="254.3" y="241.3" class="st5" width="12" height="12"/>
	<rect x="269.6" y="241.3" class="st5" width="12" height="12"/>
	<rect x="285" y="241.3" class="st5" width="12" height="12"/>
	<rect x="300.3" y="241.3" class="st5" width="12" height="12"/>
	<rect x="315.6" y="241.3" class="st5" width="12" height="12"/>
	<rect x="131.6" y="300" class="st5" width="12" height="12"/>
	<rect x="147" y="300" class="st5" width="12" height="12"/>
	<rect x="162.3" y="300" class="st5" width="12" height="12"/>
	<rect x="177.6" y="300" class="st5" width="14.7" height="12"/>
	<rect x="195.6" y="300" class="st5" width="73.4" height="12"/>
	<rect x="293.6" y="300" class="st5" width="12" height="12"/>
	<rect x="309" y="300" class="st5" width="12" height="12"/>
	<rect x="324.3" y="300" class="st5" width="12" height="12"/>
	<rect x="272" y="300" class="st5" width="18.6" height="12"/>
	<rect x="340.1" y="300" class="st5" width="12" height="12"/>
	<rect x="152.6" y="255.9" class="st5" width="12" height="12"/>
	<rect x="167.9" y="255.9" class="st5" width="12" height="12"/>
	<rect x="183.3" y="255.9" class="st5" width="12" height="12"/>
	<rect x="198.6" y="255.9" class="st5" width="12" height="12"/>
	<rect x="213.9" y="255.9" class="st5" width="12" height="12"/>
	<rect x="229.3" y="255.9" class="st5" width="12" height="12"/>
	<rect x="244.6" y="255.9" class="st5" width="12" height="12"/>
	<rect x="260" y="255.9" class="st5" width="12" height="12"/>
	<rect x="275.3" y="255.9" class="st5" width="12" height="12"/>
	<rect x="290.6" y="255.9" class="st5" width="12" height="12"/>
	<rect x="306" y="255.9" class="st5" width="12" height="12"/>
	<rect x="321.3" y="255.9" class="st5" width="12" height="12"/>
	<polygon class="st5" points="352.1,255.9 352.1,282.6 340.1,282.6 340.1,267.9 336.6,267.9 336.6,255.9 	"/>
	<rect x="156.1" y="270.6" class="st5" width="12" height="12"/>
	<rect x="171.5" y="270.6" class="st5" width="12" height="12"/>
	<rect x="186.8" y="270.6" class="st5" width="12" height="12"/>
	<rect x="202.1" y="270.6" class="st5" width="12" height="12"/>
	<rect x="217.5" y="270.6" class="st5" width="12" height="12"/>
	<rect x="232.8" y="270.6" class="st5" width="12" height="12"/>
	<rect x="248.1" y="270.6" class="st5" width="12" height="12"/>
	<rect x="263.5" y="270.6" class="st5" width="12" height="12"/>
	<rect x="278.8" y="270.6" class="st5" width="12" height="12"/>
	<rect x="294.1" y="270.6" class="st5" width="12" height="12"/>
	<rect x="309.5" y="270.6" class="st5" width="12" height="12"/>
	<rect x="324.8" y="270.6" class="st5" width="12" height="12"/>
	<rect x="149.6" y="285.2" class="st5" width="12" height="12"/>
	<rect x="164.9" y="285.2" class="st5" width="12" height="12"/>
	<rect x="180.3" y="285.2" class="st5" width="12" height="12"/>
	<rect x="195.6" y="285.2" class="st5" width="12" height="12"/>
	<rect x="210.9" y="285.2" class="st5" width="12" height="12"/>
	<rect x="226.3" y="285.2" class="st5" width="12" height="12"/>
	<rect x="241.6" y="285.2" class="st5" width="12" height="12"/>
	<rect x="257" y="285.2" class="st5" width="12" height="12"/>
	<rect x="272.3" y="285.2" class="st5" width="12" height="12"/>
	<rect x="287.6" y="285.2" class="st5" width="12" height="12"/>
	<rect x="303" y="285.2" class="st5" width="12" height="12"/>
	<rect x="156.1" y="227.4" class="st5" width="12" height="12"/>
	<rect x="171.5" y="227.4" class="st5" width="12" height="12"/>
	<rect x="186.8" y="227.4" class="st5" width="12" height="12"/>
	<rect x="202.1" y="227.4" class="st5" width="12" height="12"/>
	<rect x="217.5" y="227.4" class="st5" width="12" height="12"/>
	<rect x="232.8" y="227.4" class="st5" width="12" height="12"/>
	<rect x="248.1" y="227.4" class="st5" width="12" height="12"/>
	<rect x="263.5" y="227.4" class="st5" width="12" height="12"/>
	<rect x="278.8" y="227.4" class="st5" width="12" height="12"/>
	<rect x="294.1" y="227.4" class="st5" width="12" height="12"/>
	<rect x="309.5" y="227.4" class="st5" width="12" height="12"/>
	<rect x="324.8" y="227.4" class="st5" width="12" height="12"/>
	<rect x="340.1" y="227.4" class="st5" width="12" height="12"/>
	<rect x="131.6" y="285.2" class="st5" width="14.6" height="12"/>
	<polygon class="st11" points="126.8,221.4 131.6,219.8 354.4,219.8 357.5,221.4 	"/>
</g>
<g id="Hands">
	<path class="st4" d="M291.5,388l-4.7-28.2c-1-4.2-3.2-8-6.3-11.1c-9.3-9-21.7-18.2-22.2-30c-0.8-18-3.6-17.5-3.3-21.9
		c1.2-2.1,2.3-4.3,3.2-6.6c0.6-1.7,1-3.5,1.4-5.3c0.4-1.8,2.1-3.1,4-2.9c1.3,0.2,2.5,0.7,3.4,1.6c1.7,1.8,2.6,4.1,2.5,6.5
		c0,2.4-0.4,4.8-1,7.1c1.6,4,2.6,8.2,3,12.4c1.1-3.3,1.9-6.6,3-9.9c0.2-0.1,0.1-0.4,0.3-0.5c-1.5-3.2-0.2-3.1-3.2-10.2
		c-5-12-10.6-23.6-14.7-38.6c-0.3-1.4-0.3-2.9,0.1-4.2c1.5-4.3,5.9-3.3,7.8-0.8c0.5,0.7,0.9,1.4,1.2,2.2c2.6,6.4,5.8,12.6,9.6,18.4
		l10.9,16.6c0,0,3.8-3.1,4.4-4.5l0,0c0.6-1.4,0.9-12.7,0.9-12.7s-0.9,2.1-2.8,2c-1.4-0.1-4.2,0.7-6.2-1.5c-1.6-1.9-1.7-4.6-0.2-6.5
		l4.9-6.7c2.2-1.7,5.2-2.1,7.7-0.9c3.2,1.6,6.1,3.7,8.7,6.1c2.6-0.1,5.2,0.4,7.6,1.5c3.5,1.7,7.1,6.5,7.1,6.5s4.1,0.2,5.9,1.6
		c0.5,0.3,6.7,10,4.4,17.5c-1.3,4.5-2.2,11-2.8,12.8l-3,44.1l6.1,29l-13.1,7.3c-4.8,2.7-9.8,4.9-15,6.7L291.5,388z"/>
	<path class="st9" d="M328.8,336.5l0.1-44.2c0.5-1.8,0.9-8.3,1.9-12.9c1.7-7.7-5.1-16.9-5.6-17.2c-1.9-1.2-6-1.2-6-1.2s-4-4.6-7.6-6
		c-2.4-0.9-5.1-1.2-7.7-1c-2.7-2.3-5.8-4.1-9.1-5.5c-2.6-1-5.6-0.4-7.7,1.4l-4.5,7c-1.4,2-1.1,4.8,0.6,6.5c2.1,2.1,4.9,1.1,6.3,1.1
		c1.9,0,2.6-2.2,2.6-2.2s0.5,11.3,0,12.7l0,0c-0.5,1.4-4.1,4.8-4.1,4.8l-12-15.8c-4.1-5.6-7.7-11.5-10.8-17.8
		c-0.3-0.8-0.8-1.5-1.3-2.1c-2.1-2.4-6.6-3.1-7.8,1.3c-0.3,1.4-0.2,2.9,0.2,4.2c5,14.8,11.4,25.9,17.2,37.6c3.5,6.9,2.2,6.8,3.9,10
		c-0.2,0.1-0.1,0.4-0.3,0.5c-0.8,3.4-1.4,6.7-2.3,10.1c-0.7-4.2-2-8.3-3.8-12.2c0.5-2.3,0.7-4.7,0.5-7.1c-0.2-2.4-1.2-4.7-3-6.3
		c-1-0.8-2.2-1.3-3.5-1.4c-1.9-0.1-3.6,1.2-3.8,3.1c-0.2,1.8-0.5,3.6-1,5.4c-0.8,2.3-1.7,4.6-2.8,6.8c0,4.5,2.8,3.7,4.8,21.7
		c1.6,14,19.6,23.2,29.4,33.3l10.4,32.9c12.2-4.9,23.9-11.1,35-18.3L328.8,336.5z"/>
	<g>
		<defs>
			<path id="SVGID_1_" d="M328.8,336.5l0.1-44.2c0.5-1.8,0.9-8.3,1.9-12.9c1.7-7.7-5.1-16.9-5.6-17.2c-1.9-1.2-6-1.2-6-1.2
				s-4-4.6-7.6-6c-2.4-0.9-5.1-1.2-7.7-1c-2.7-2.3-5.8-4.1-9.1-5.5c-2.6-1-5.6-0.4-7.7,1.4l-4.5,7c-1.4,2-1.1,4.8,0.6,6.5
				c2.1,2.1,4.9,1.1,6.3,1.1c1.9,0,2.6-2.2,2.6-2.2s0.5,11.3,0,12.7l0,0c-0.5,1.4-4.1,4.8-4.1,4.8l-12-15.8
				c-4.1-5.6-7.7-11.5-10.8-17.8c-0.3-0.8-0.8-1.5-1.3-2.1c-2.1-2.4-6.6-3.1-7.8,1.3c-0.3,1.4-0.2,2.9,0.2,4.2
				c5,14.8,11.4,25.9,17.2,37.6c3.5,6.9,2.2,6.8,3.9,10c-0.2,0.1-0.1,0.4-0.3,0.5c-0.8,3.4-1.4,6.7-2.3,10.1
				c-0.7-4.2-2-8.3-3.8-12.2c0.5-2.3,0.7-4.7,0.5-7.1c-0.2-2.4-1.2-4.7-3-6.3c-1-0.8-2.2-1.3-3.5-1.4c-1.9-0.1-3.6,1.2-3.8,3.1
				c-0.2,1.8-0.5,3.6-1,5.4c-0.8,2.3-1.7,4.6-2.8,6.8c0,4.5,2.8,3.7,4.8,21.7c1.6,14,19.6,23.2,29.4,33.3l10.4,32.9
				c12.2-4.9,23.9-11.1,35-18.3L328.8,336.5z"/>
		</defs>
		<clipPath id="SVGID_00000110457338831640668580000006775681740577989285_">
			<use xlink:href="#SVGID_1_"  style="overflow:visible;"/>
		</clipPath>
		<g style="clip-path:url(#SVGID_00000110457338831640668580000006775681740577989285_);">
			<path class="st13" d="M323.7,276.4c0.4-1.3,1.2-2.5,2.3-3.5c1.1-0.9,2.8-0.9,3.8,0.1c-0.7-2.3-1.5-4.6-2.4-6.8
				c-0.5-1.8-1.5-3.4-2.8-4.7c-1.4-1.2-3.8-1.4-5,0c0.9,5.2,1,10.6,0.3,15.8c-0.4,2.8-0.9,6.1,1.1,8.2c0.5,0.4,1.5-0.3,1.1-0.9
				c-0.2-0.3-0.7-0.3-1-0.3C321.7,281.7,322.6,279,323.7,276.4z"/>
			<path class="st13" d="M323.7,276.4c0.4-1.3,1.2-2.5,2.3-3.5c1.1-0.9,2.8-0.9,3.8,0.1c-0.7-2.3-1.5-4.6-2.4-6.8
				c-0.5-1.8-1.5-3.4-2.8-4.7c-1.4-1.2-3.8-1.4-5,0c0.9,5.2,1,10.6,0.3,15.8c-0.4,2.8-0.9,6.1,1.1,8.2c0.5,0.4,1.5-0.3,1.1-0.9
				c-0.2-0.3-0.7-0.3-1-0.3C321.7,281.7,322.6,279,323.7,276.4z"/>
			<path class="st14" d="M323.7,276.4c0.4-1.3,1.2-2.5,2.3-3.5c1.1-0.9,2.8-0.9,3.8,0.1c-0.7-2.3-1.5-4.6-2.4-6.8
				c-0.5-1.8-1.5-3.4-2.8-4.7c-1.4-1.2-3.8-1.4-5,0c0.9,5.2,1,10.6,0.3,15.8c-0.4,2.8-0.9,6.1,1.1,8.2c0.5,0.4,1.5-0.3,1.1-0.9
				c-0.2-0.3-0.7-0.3-1-0.3C321.7,281.7,322.6,279,323.7,276.4z"/>
			<path class="st13" d="M307.7,271.7c0,1.9,0.2,3.9,0.5,5.7c0.4,1.9,1.5,3.6,3.2,4.6c-1-3.7-0.5-7.7,0.1-11.5l1-7
				c0-0.8,0.3-1.6,0.7-2.3c0.4-0.7,1.3-1,2.1-0.8c-1,0.6-2.3-0.2-2.9-1.2c-0.4-1.1-1-2.1-1.5-3.1c-1.3-1.7-4.2-2.1-6.2-1.6
				C305.4,260.3,307.5,265.8,307.7,271.7z"/>
			<path class="st13" d="M307.7,271.7c0,1.9,0.2,3.9,0.5,5.7c0.4,1.9,1.5,3.6,3.2,4.6c-1-3.7-0.5-7.7,0.1-11.5l1-7
				c0-0.8,0.3-1.6,0.7-2.3c0.4-0.7,1.3-1,2.1-0.8c-1,0.6-2.3-0.2-2.9-1.2c-0.4-1.1-1-2.1-1.5-3.1c-1.3-1.7-4.2-2.1-6.2-1.6
				C305.4,260.3,307.5,265.8,307.7,271.7z"/>
			<g class="st15">
				<path class="st13" d="M307.7,271.7c0,1.9,0.2,3.9,0.5,5.7c0.4,1.9,1.5,3.6,3.2,4.6c-1-3.7-0.5-7.7,0.1-11.5l1-7
					c0-0.8,0.3-1.6,0.7-2.3c0.4-0.7,1.3-1,2.1-0.8c-1,0.6-2.3-0.2-2.9-1.2c-0.4-1.1-1-2.1-1.5-3.1c-1.3-1.7-4.2-2.1-6.2-1.6
					C305.4,260.3,307.5,265.8,307.7,271.7z"/>
			</g>
			<path class="st13" d="M291.4,256.2c-0.6-0.6-1-1.3-1.1-2.1c-0.1-0.8-0.5-1.5-1.2-2c-3.1,2-1.4,7.7-4.5,9.5
				c-0.6,0.4-1.4,0.6-1.7,1.2c-0.3,0.6-0.1,1.3,0.3,1.8c0.5,0.4,1.1,0.7,1.7,0.8c2.5,0.4,5.1-0.7,6.5-2.8c1.2-1.7,2.1-4.4,1.5-6.4
				C292.5,256.5,291.9,256.5,291.4,256.2z"/>
			<path class="st13" d="M259.5,293.6c0,0.2-0.1,0.5,0.1,0.6s0.6-0.1,0.8-0.4c1.4-1.9,3.8-2.6,6-1.9c0.8,0,1.1-1.2,0.6-1.9
				c-0.6-0.5-1.4-0.8-2.2-0.7c-0.8,0.1-1.6,0-2.4-0.4c-0.8-0.5-1.2-1.6-1-2.5C260.8,288.8,260.1,291.2,259.5,293.6z"/>
			<g class="st15">
				<path class="st13" d="M291.4,256.2c-0.6-0.6-1-1.3-1.1-2.1c-0.1-0.8-0.5-1.5-1.2-2c-3.1,2-1.4,7.7-4.5,9.5
					c-0.6,0.4-1.4,0.6-1.7,1.2c-0.3,0.6-0.1,1.3,0.3,1.8c0.5,0.4,1.1,0.7,1.7,0.8c2.5,0.4,5.1-0.7,6.5-2.8c1.2-1.7,2.1-4.4,1.5-6.4
					C292.5,256.5,291.9,256.5,291.4,256.2z"/>
				<path class="st13" d="M259.5,293.6c0,0.2-0.1,0.5,0.1,0.6s0.6-0.1,0.8-0.4c1.4-1.9,3.8-2.6,6-1.9c0.8,0,1.1-1.2,0.6-1.9
					c-0.6-0.5-1.4-0.8-2.2-0.7c-0.8,0.1-1.6,0-2.4-0.4c-0.8-0.5-1.2-1.6-1-2.5C260.8,288.8,260.1,291.2,259.5,293.6z"/>
			</g>
			<path class="st13" d="M300.2,255.5c-1.8-0.2-3.6-0.3-5.1-1.2c-1.9-1.1-3.2-3.5-5.4-3.6c-2-0.1-3.4,1.7-4.5,3.3
				c0-2.5,1.6-4.7,3.9-5.6c2.3-0.8,4.9-0.7,7.1,0.3c2.2,1,4.3,2.3,6.2,3.9c0.8,0.5,1.5,1.2,2.1,2C307,258.5,301.7,255.7,300.2,255.5
				z"/>
			<path class="st14" d="M300.2,255.5c-1.8-0.2-3.6-0.3-5.1-1.2c-1.9-1.1-3.2-3.5-5.4-3.6c-2-0.1-3.4,1.7-4.5,3.3
				c0-2.5,1.6-4.7,3.9-5.6c2.3-0.8,4.9-0.7,7.1,0.3c2.2,1,4.3,2.3,6.2,3.9c0.8,0.5,1.5,1.2,2.1,2C307,258.5,301.7,255.7,300.2,255.5
				z"/>
			<path class="st13" d="M268.9,312.3c0.1-0.2,0.2-0.4,0.3-0.7C269,311.8,268.9,312,268.9,312.3z"/>
			<path class="st13" d="M271.9,296.8c-0.2-2.5,0.1-4.9,0-7.4c-0.1-2.5-0.8-5.1-2.5-6.8c-2.6-2.4-9.7-1.2-7.3,3.4
				c0.7,1.3,2.3,1.9,3.7,1.4c1.3-0.6,1.9-2.2,1.3-3.6c0,0,0,0,0-0.1c2.8,4.5,2.6,10.3-0.6,14.6c3.7,3.4,4.8,8.7,2.8,13.2
				c0.5-0.3,1.2-0.3,1.6,0c0.6,0.6,1.1,1.4,1.3,2.3c0.3,0.8,1,1.6,1.9,1.6c1.2-3,0.8-6.3,0-9.4S272.1,300,271.9,296.8z"/>
			<path class="st13" d="M297.8,250.4c-1.4-1.1-3-1.8-4.7-2L297.8,250.4z"/>
			<path class="st13" d="M309.5,281.7c-0.4-1.7-1.2-3.3-1.6-5c-1.1-3.9-0.4-8.1-0.9-12.1c-0.7-5.3-3.3-10.1-7.4-13.4l-1.8-0.8
				c1.7,1.3,3,3.2,3.6,5.2c1.4,4.8,1.8,9.8,2.4,14.7c0.9,7.6,2.3,15.2,4.2,22.7C309.1,289.3,310.3,285.4,309.5,281.7z"/>
			<path class="st13" d="M290.5,263.9c1.2-1.1,2-2.5,2.1-4.1c0.1-1.4,0.1-2.8-0.1-4.2c-0.2,0.7-0.9,1.1-1.6,0.9
				c-0.8-0.3-1.5-0.9-1.9-1.7l-0.4,1.2l-0.2-0.7L288,256c0.7,2,1.4,4.3,0.3,6.2c-0.6,0.8-1.4,1.6-2.2,2.1
				C287.5,265.1,289.2,265,290.5,263.9z"/>
			<path class="st13" d="M292.4,255.1l0.1,0.5C292.5,255.4,292.5,255.2,292.4,255.1z"/>
			<path class="st13" d="M287.2,275.3c-3.5-6.9-7-13.8-10.9-20.5c-2.2-4-4.7-7.7-7.6-11.2c-1.3-1.5-5.2-5-7.3-2.7
				c-1.4,1.5,0.4,4.3-1.3,5.9c0.4,0,2.3-0.2,2.6,0.1c4.4,5.5,6.8,12.3,6.7,19.4c1.4-1.1,3.4,0.4,4.5,1.9c6.8,8.7,13.1,17.8,19,27.1
				c-1.1-4.1-1.2-8.5-2.4-12.6C289.6,280.2,288.5,277.7,287.2,275.3z"/>
			<path class="st13" d="M327.9,292.1c1.8-4.4,2.8-9.1,3.1-13.8c0.2-4.4-0.9-8.7-3.1-12.5c-0.6-0.9-3-4.8-4.3-4.5
				c-2.4,0.6,0.7,4.6,1.3,5.7c2,3.9,4.1,7.9,4,12.3c-0.1,3.4-1.5,6.5-2.6,9.6c-0.9,2.2-1.3,4.5-1.4,6.9c-0.2,0.3-0.3,0.5-0.5,0.8
				c-1.5,2.1-3.7,3.6-6.3,4.1c1-3,1.9-6,2.9-9c0.4-1.1,0.5-2.5-0.1-3.3c0.2-0.4,0.3-0.8,0.3-1.3c-0.1-0.8-0.4-1.6-0.9-2.3
				c-1.3-2.9-0.9-6.2-0.6-9.4c0.4-3.9,0.5-7.9-0.6-11.7c-1.1-3.8-3.8-7.2-7.5-8.5l1,1l-1.3-0.9l2.3,4.9l-0.9,1.2
				c1.3-0.7,2.9,0.3,3.5,1.6c0.5,1.4,0.6,2.9,0.3,4.3c-0.8,8.1-0.4,16.3,1.2,24.3c-0.1,1.9-0.5,3.7-1.4,5.3c-1,1.8-2.9,2.9-5,2.7
				c0.5-2-0.3-4.1-1.9-5.3c-2,2.8-0.8,7.1-0.5,10.3c0.5,4.8,1.2,9.6,2.3,14.4c0.3-4.1,1.2-8.1,2.5-12c1.1,3.9,2.2,7.9,3.3,11.9
				c-0.1-1.1,0.2-2.2,0.6-3.2c0.5-1,1.7-1.6,2.8-1.3c0.8,0.4,1.4,1.2,1.7,2.1c2.8,6.8,3.5,14.4,2,21.6c1.3,0.8,3.1-0.1,3.9-1.5
				c0.6-1.4,0.9-3,0.7-4.5C328.4,318.8,328.2,305.5,327.9,292.1z"/>
			<path class="st13" d="M294,296.3c-0.6,1.1,2,5.6,2.4,6.6c2.2,5.4,4.4,10.8,6.6,16.1c-0.7-7.1-2.5-14.1-5.1-20.7
				C297.5,297.3,295.3,294.1,294,296.3z"/>
			<path class="st13" d="M297.5,267.8c-0.4,0.6-0.9,1.3-1.6,1.1c-0.7-0.2-0.7-1-0.7-1.6c0.1-3.7,0.1-7.5,0.2-11.2
				c-3,2.2-2.6,5-2.8,8.2c-0.1,1.9,0.4,10.8-0.9,11.9c3-2.6,5.5-5.6,7.4-9.1C298.6,266.7,297.8,267.3,297.5,267.8z"/>
			<g class="st15">
				<path class="st13" d="M268.9,312.3c0.1-0.2,0.2-0.4,0.3-0.7C269,311.8,268.9,312,268.9,312.3z"/>
				<path class="st13" d="M271.9,296.8c-0.2-2.5,0.1-4.9,0-7.4c-0.1-2.5-0.8-5.1-2.5-6.8c-2.6-2.4-9.7-1.2-7.3,3.4
					c0.7,1.3,2.3,1.9,3.7,1.4c1.3-0.6,1.9-2.2,1.3-3.6c0,0,0,0,0-0.1c2.8,4.5,2.6,10.3-0.6,14.6c3.7,3.4,4.8,8.7,2.8,13.2
					c0.5-0.3,1.2-0.3,1.6,0c0.6,0.6,1.1,1.4,1.3,2.3c0.3,0.8,1,1.6,1.9,1.6c1.2-3,0.8-6.3,0-9.4S272.1,300,271.9,296.8z"/>
				<path class="st13" d="M297.8,250.4c-1.4-1.1-3-1.8-4.7-2L297.8,250.4z"/>
				<path class="st13" d="M309.5,281.7c-0.4-1.7-1.2-3.3-1.6-5c-1.1-3.9-0.4-8.1-0.9-12.1c-0.7-5.3-3.3-10.1-7.4-13.4l-1.8-0.8
					c1.7,1.3,3,3.2,3.6,5.2c1.4,4.8,1.8,9.8,2.4,14.7c0.9,7.6,2.3,15.2,4.2,22.7C309.1,289.3,310.3,285.4,309.5,281.7z"/>
				<path class="st13" d="M290.5,263.9c1.2-1.1,2-2.5,2.1-4.1c0.1-1.4,0.1-2.8-0.1-4.2c-0.2,0.7-0.9,1.1-1.6,0.9
					c-0.8-0.3-1.5-0.9-1.9-1.7l-0.4,1.2l-0.2-0.7L288,256c0.7,2,1.4,4.3,0.3,6.2c-0.6,0.8-1.4,1.6-2.2,2.1
					C287.5,265.1,289.2,265,290.5,263.9z"/>
				<path class="st13" d="M292.4,255.1l0.1,0.5C292.5,255.4,292.5,255.2,292.4,255.1z"/>
				<path class="st13" d="M287.2,275.3c-3.5-6.9-7-13.8-10.9-20.5c-2.2-4-4.7-7.7-7.6-11.2c-1.3-1.5-5.2-5-7.3-2.7
					c-1.4,1.5,0.4,4.3-1.3,5.9c0.4,0,2.3-0.2,2.6,0.1c4.4,5.5,6.8,12.3,6.7,19.4c1.4-1.1,3.4,0.4,4.5,1.9c6.8,8.7,13.1,17.8,19,27.1
					c-1.1-4.1-1.2-8.5-2.4-12.6C289.6,280.2,288.5,277.7,287.2,275.3z"/>
				<path class="st13" d="M327.9,292.1c1.8-4.4,2.8-9.1,3.1-13.8c0.2-4.4-0.9-8.7-3.1-12.5c-0.6-0.9-3-4.8-4.3-4.5
					c-2.4,0.6,0.7,4.6,1.3,5.7c2,3.9,4.1,7.9,4,12.3c-0.1,3.4-1.5,6.5-2.6,9.6c-0.9,2.2-1.3,4.5-1.4,6.9c-0.2,0.3-0.3,0.5-0.5,0.8
					c-1.5,2.1-3.7,3.6-6.3,4.1c1-3,1.9-6,2.9-9c0.4-1.1,0.5-2.5-0.1-3.3c0.2-0.4,0.3-0.8,0.3-1.3c-0.1-0.8-0.4-1.6-0.9-2.3
					c-1.3-2.9-0.9-6.2-0.6-9.4c0.4-3.9,0.5-7.9-0.6-11.7c-1.1-3.8-3.8-7.2-7.5-8.5l1,1l-1.3-0.9l2.3,4.9l-0.9,1.2
					c1.3-0.7,2.9,0.3,3.5,1.6c0.5,1.4,0.6,2.9,0.3,4.3c-0.8,8.1-0.4,16.3,1.2,24.3c-0.1,1.9-0.5,3.7-1.4,5.3c-1,1.8-2.9,2.9-5,2.7
					c0.5-2-0.3-4.1-1.9-5.3c-2,2.8-0.8,7.1-0.5,10.3c0.5,4.8,1.2,9.6,2.3,14.4c0.3-4.1,1.2-8.1,2.5-12c1.1,3.9,2.2,7.9,3.3,11.9
					c-0.1-1.1,0.2-2.2,0.6-3.2c0.5-1,1.7-1.6,2.8-1.3c0.8,0.4,1.4,1.2,1.7,2.1c2.8,6.8,3.5,14.4,2,21.6c1.3,0.8,3.1-0.1,3.9-1.5
					c0.6-1.4,0.9-3,0.7-4.5C328.4,318.8,328.2,305.5,327.9,292.1z"/>
				<path class="st13" d="M294,296.3c-0.6,1.1,2,5.6,2.4,6.6c2.2,5.4,4.4,10.8,6.6,16.1c-0.7-7.1-2.5-14.1-5.1-20.7
					C297.5,297.3,295.3,294.1,294,296.3z"/>
				<path class="st13" d="M297.5,267.8c-0.4,0.6-0.9,1.3-1.6,1.1c-0.7-0.2-0.7-1-0.7-1.6c0.1-3.7,0.1-7.5,0.2-11.2
					c-3,2.2-2.6,5-2.8,8.2c-0.1,1.9,0.4,10.8-0.9,11.9c3-2.6,5.5-5.6,7.4-9.1C298.6,266.7,297.8,267.3,297.5,267.8z"/>
			</g>
		</g>
	</g>
	<path class="st16" d="M305.1,255.6c1.8,6.5,2.7,13.2,2.7,20c-0.1,1.1,0.1,2.3,0.4,3.4c0.3,1.1,1.2,2,2.3,2.3"/>
	<path class="st16" d="M319.2,262.1c3,6.3-0.1,20.2,0.1,21.2c0.2,1,0.8,1.9,1.7,2.4"/>
	<path class="st16" d="M293.5,254.7c-0.3,2-0.6,4.3-1,6.3c-2.4-2-3.8-4.9-4-8"/>
	<path class="st16" d="M274.3,308.1l-2.2,0.9"/>
	<path class="st16" d="M274.9,309.8c-0.3,1.7-0.3,3.4,0,5.1"/>
	<path class="st16" d="M287.5,291.1c0.8,1.4,1.6,2.9,2.4,4.3"/>
	<path class="st16" d="M292.1,275.3l2.4-3.4"/>
	<path class="st16" d="M325.6,291.1l-0.7,2.6"/>
	<path class="st16" d="M319.8,283.9c0.7-2.2,1.4-4.5,2.1-6.7"/>
	<path class="st16" d="M326.8,272c1.3-0.7,2.9-0.2,3.6,1.1"/>
	<path class="st16" d="M312.4,260.5c1.7-0.5,3.5-0.1,4.8,1.1"/>
	<path class="st16" d="M267.9,267.2c1.6-1.7,3.9-2.6,6.2-2.3"/>
	<path class="st16" d="M258.8,248.3c1.4-1,3.2-1.5,5-1.2"/>
	<path class="st9" d="M260.7,293.1c-1.2,0.9-2.2,2-2.9,3.3L260.7,293.1z"/>
	<path class="st16" d="M261.7,288.5c1.6-1.1,4.1,1.4,5.5,0.1c0.5-0.6,0.7-1.4,0.5-2.2c-0.2-0.7-0.3-1.5-0.3-2.3"/>
	<path class="st16" d="M306.3,281.6c1.9,4,2.3,8.6,1.1,12.8"/>
	<path class="st16" d="M317.9,287.8c0.3,1.9,0,3.8-1,5.5"/>
	<path class="st17" d="M302.2,384.1l-10.4-32.9c-9.8-10.1-27.8-19.3-29.4-33.3c-2-17.9-4.8-17.2-4.8-21.7c1.1-2.2,2-4.5,2.8-6.8
		c0.5-1.8,0.8-3.6,1-5.4c0.3-1.9,1.9-3.2,3.8-3.1c1.3,0.1,2.5,0.6,3.5,1.4c1.8,1.6,2.8,3.9,3,6.3c0.1,2.4,0,4.8-0.5,7.1
		c1.8,3.9,3.1,8,3.8,12.2c0.8-3.4,1.4-6.7,2.3-10.1c0.2-0.1,0.1-0.4,0.3-0.5c-1.7-3.1-0.4-3-3.9-10c-5.8-11.6-12.2-22.8-17.2-37.6
		c-0.4-1.4-0.5-2.8-0.2-4.2c1.2-4.4,5.7-3.7,7.8-1.3c0.6,0.6,1,1.3,1.4,2.1c3,6.2,6.6,12.2,10.8,17.8l12,15.8c0,0,3.6-3.4,4.1-4.8
		l0,0c0.5-1.4,0-12.7,0-12.7s-0.7,2.2-2.6,2.2c-1.4,0-4.1,1-6.3-1.1c-1.7-1.8-2-4.5-0.6-6.5l4.5-7c2.1-1.9,5-2.4,7.7-1.4
		c3.3,1.4,6.4,3.2,9.1,5.5c2.6-0.2,5.2,0.1,7.7,1c3.6,1.4,7.6,6,7.6,6s4.1,0,6,1.2c0.5,0.3,7.3,9.5,5.6,17.2
		c-1,4.6-1.4,11.1-1.9,12.9l-0.1,44.2l8.3,29.3"/>
	<path class="st17" d="M305.1,255.6c1.8,6.5,2.7,13.2,2.7,20c-0.1,1.1,0.1,2.3,0.4,3.4c0.3,1.1,1.2,2,2.3,2.3"/>
	<path class="st17" d="M319.2,262.1c3,6.3-0.1,20.2,0.1,21.2c0.2,1,0.8,1.9,1.7,2.4"/>
	<path class="st17" d="M293.5,254.7c-0.3,2-0.6,4.3-1,6.3c-2.4-2-3.8-4.9-4-8"/>
	<path class="st17" d="M274.3,308.1l-2.2,0.9"/>
	<path class="st17" d="M274.9,309.8c-0.3,1.7-0.3,3.4,0,5.1"/>
	<path class="st17" d="M287.5,291.1c0.8,1.4,1.6,2.9,2.4,4.3"/>
	<path class="st17" d="M292.1,275.3l2.4-3.4"/>
	<path class="st17" d="M325.6,291.1l-0.7,2.6"/>
	<path class="st17" d="M319.8,283.9c0.7-2.2,1.4-4.5,2.1-6.7"/>
	<path class="st17" d="M326.8,272c1.3-0.7,2.9-0.2,3.6,1.1"/>
	<path class="st17" d="M312.4,260.5c1.7-0.5,3.5-0.1,4.8,1.1"/>
	<path class="st17" d="M267.9,267.2c1.6-1.7,3.9-2.6,6.2-2.3"/>
	<path class="st17" d="M258.8,248.3c1.4-1,3.2-1.5,5-1.2"/>
	<path class="st17" d="M260.7,293.1c-1.2,0.9-2.2,2-2.9,3.3"/>
	<path class="st17" d="M261.7,288.5c1.6-1.1,4.1,1.4,5.5,0.1c0.5-0.6,0.7-1.4,0.5-2.2c-0.2-0.7-0.3-1.5-0.3-2.3"/>
	<path class="st17" d="M306.3,281.6c1.9,4,2.3,8.6,1.1,12.8"/>
	<path class="st17" d="M317.9,287.8c0.3,1.9,0,3.8-1,5.5"/>
	<path class="st4" d="M221.2,302.8c0.1,0.7,0.1,1.4-0.1,2.1c-0.6,3-2.5,11.8-3.2,16.6c-0.8,5.9-10.3,24-10.3,24s-8.7,10.8-13.2,16.5
		c-2.2,2.8-5.6,14-8.6,24.7c-3.7-1.1-7.4-2.3-11-3.6c-3-1.1-6-2.2-9-3.4c-5.4-2.2-10.6-4.8-15.6-7.6c1.7-6,2.8-10.7,2.8-10.9
		c-0.1-0.6,3.6-7.6,3.6-7.6l-3.1-41.5l-1.9-6.3c-1-3.3-1.6-6.6-1.8-10c-0.4-5.1,0-10.3,1.3-15.3l5.4-8.1l2.5-0.2l7.9-11
		c0,0,4.2-1.3,5.3,1.9s-3.5,9.2-3.5,9.2l-1.6,9.9l3.8,9.2l2,0.7c0,0,0.7-16.3,0.2-19.5l4.1-14.8c1.2-2.4,2.3-4.9,3.3-7.5
		c0.8-2.5,5.2-5,7.8-0.6c0.9,1.6,1,3.5,0.4,5.3c-1.1,3-1.9,5.4-1.9,5.4s-1,12.6-1.2,12.9s1.9,18.7,1.9,18.7l1.6,0.7l0.6-17.5
		l3.4-16.5c0,0-0.3-7.9,5.3-7c1.8-0.1,3.4,0.9,4.1,2.6c1.5,2.8,0.1,21.8,0.1,21.8l1.4,19.6l2.2,15.1l2.6-10.4c0,0,0.1-14.9,9.5-16.1
		c0,0,2.8-0.5,3.4,1.4s-1.4,5.9-1.1,9.7C220.6,298.2,221,301.2,221.2,302.8z"/>
	<path class="st9" d="M218.3,284.4c-0.4-2-3.2-1.7-3.2-1.7c-9.4,0.6-10.7,15.4-10.7,15.4l-3.4,10.1l-1-15.3l0.1-19.7
		c0,0,2.9-18.8,1.6-21.8c-0.6-1.7-2.1-2.8-3.9-2.9c-5.5-1.4-5.8,6.5-5.8,6.5l-4.6,16.2l-1.9,17.5l-1.6-0.8c0,0-0.8-18.5-0.4-18.8
		s2.2-12.8,2.2-12.8s1.1-2.3,2.3-5.3c0.8-1.7,0.8-3.6,0-5.3c-2.2-4.5-6.9-2.4-7.8,0c-1.1,2.5-2.4,4.9-3.8,7.2l-5.3,14.5
		c0.2,3.3-1.7,19.5-1.7,19.5l-1.9-0.9l-3.1-9.5l2.3-9.7c0,0,5.1-5.6,4.2-8.9c-0.9-3.3-5.2-2.3-5.2-2.3L157,266h-2.6l-6,7.6
		c-2.7,8.2-3.2,16.9-1.4,25.3l1.4,6.4v41.6c0,0-4.1,6.7-4.1,7.3c0,0.3-1.7,5.5-4.1,12.1c10.4,6.1,19.3,10.8,25.6,13.3
		c3,1.2,6,2.3,9,3.4c3.8-10.7,8.2-22.1,10.7-24.8c4.9-5.3,14.4-15.4,14.4-15.4s10.8-17.4,12.1-23.1c1-4.7,3.6-13.4,4.5-16.3
		c0.2-0.7,0.3-1.4,0.2-2.1c-0.1-1.6-0.2-4.6-0.2-7.3C216.5,290.2,218.8,286.4,218.3,284.4z"/>
	<g>
		<defs>
			<path id="SVGID_00000053522444972358460320000008616081197271084212_" d="M218.3,284.4c-0.4-2-3.2-1.7-3.2-1.7
				c-9.4,0.6-10.7,15.4-10.7,15.4l-3.4,10.1l-1-15.3l0.1-19.7c0,0,2.9-18.8,1.6-21.8c-0.6-1.7-2.1-2.8-3.9-2.9
				c-5.5-1.4-5.8,6.5-5.8,6.5l-4.6,16.2l-1.9,17.5l-1.6-0.8c0,0-0.8-18.5-0.4-18.8s2.2-12.8,2.2-12.8s1.1-2.3,2.3-5.3
				c0.8-1.7,0.8-3.6,0-5.3c-2.2-4.5-6.9-2.4-7.8,0c-1.1,2.5-2.4,4.9-3.8,7.2l-5.3,14.5c0.2,3.3-1.7,19.5-1.7,19.5l-1.9-0.9l-3.1-9.5
				l2.3-9.7c0,0,5.1-5.6,4.2-8.9c-0.9-3.3-5.2-2.3-5.2-2.3L157,266h-2.6l-6,7.6c-2.7,8.2-3.2,16.9-1.4,25.3l1.4,6.4v41.6
				c0,0-4.1,6.7-4.1,7.3c0,0.3-1.7,5.5-4.1,12.1c10.4,6.1,19.3,10.8,25.6,13.3c3,1.2,6,2.3,9,3.4c3.8-10.7,8.2-22.1,10.7-24.8
				c4.9-5.3,14.4-15.4,14.4-15.4s10.8-17.4,12.1-23.1c1-4.7,3.6-13.4,4.5-16.3c0.2-0.7,0.3-1.4,0.2-2.1c-0.1-1.6-0.2-4.6-0.2-7.3
				C216.5,290.2,218.8,286.4,218.3,284.4z"/>
		</defs>
		<clipPath id="SVGID_00000114031696783365177890000005937358398085222580_">
			<use xlink:href="#SVGID_00000053522444972358460320000008616081197271084212_"  style="overflow:visible;"/>
		</clipPath>
		<g style="clip-path:url(#SVGID_00000114031696783365177890000005937358398085222580_);">
			<path class="st13" d="M153.4,280.2c1.6-2,4.9-2.8,6.8-1c1,1.1,1.6,2.5,1.7,4c0.1,1.5,0.7,2.9,1.5,4.1c1,1.1,2.9,1.6,3.9,0.5
				c0.1,2.2,0.3,4.4,0.4,6.6c2.3-4.1,3.5-8.7,3.4-13.4c0-2.3-0.4-4.6,0.1-6.8s2.2-4.4,4.5-4.5c2.5-0.1,4.5,2.3,5,4.8s-0.1,5-0.2,7.5
				c-0.2,3.9,0.5,7.7,2.2,11.2l1.6-3.2c0.5,2.2,1,4.3,1.4,6.5c0.4-4.7,0.8-9.5,1.2-14.2c0-1.3,0.3-2.7,0.9-3.9c0.6-1.2,1.8-2,3.2-2
				c1.8,0.2,2.8,2.1,3.4,3.8c4.5,12.8,2.6,26.7,0.7,40.1c1.2,0.2,2.3-1,2.6-2.3c0.1-1.3,0.4-2.5,0.7-3.7c0.5-1.2,1.9-2.2,3-1.5
				c1.6,1,0.5,4.1,2.1,4.9c0.5-4,2.1-7.7,4.5-10.9c1.1-1.4,2.8-2.9,4.5-2.4c1.3,0.5,2.2,1.6,2.4,3c0.2,1.3,2.1-4.2,1.8-2.9
				c0.8-7.7-0.8-8.5,0-16.2c0.1-1.4,2.4-3.8,1.4-4.8s-3.6-2.4-4.8-1.8s-5.1,2.5-5.9,3.6c-4.9,6.8-4.6,16.6-6.1,24.9
				c-1.3-12.6-2.6-25.3-0.3-37.7c1.3-6.9,3.6-14,1.4-20.6c-1-3-3.7-6-6.8-5.5c-2.5,0.5-4,3-5.1,5.4c-3.4,7.9-5,16.5-6.5,25l5.6-25.7
				c0.6-2.2,0.8-4.5,0.6-6.7c-0.4-2.2-1.9-4.4-4.2-4.9s-4.4,0.8-6.1,2.4c-6,5.4-8.2,13.7-10.1,21.6c0.8-2,1.2-4.1,1.2-6.3
				c-0.2-2.1-1.6-4.3-3.7-4.8c-2.7-0.6-5.2,1.8-6.4,4.3c-1.2,2.5-1.8,5.4-3.7,7.5c-1.4-1.6-4-1.5-5.7-0.3c-1.7,1.3-2.9,3-3.6,5
				c-3.1,7.1-4.5,14.8-3.9,22.5c1.5-3.1,4.8-5,8.2-4.7c-0.2-1.7-0.4-3.4-0.6-5.1"/>
			<path class="st13" d="M160,296.5c-0.1,1.3-0.2,2.5-0.3,3.8c0.4-0.9,1.5-1.3,2.4-0.9c0.1,0.1,0.3,0.1,0.4,0.2
				c0-0.8,0.2-1.6,0.6-2.3c0.3-0.8,0.4-1.8-0.4-2.2s-1.7,0.6-2.2,1.4c0-0.3-0.1-0.6-0.1-0.9L160,296.5z"/>
			<path class="st13" d="M174.4,294.2c-1,1.2-1.7,2.6-2,4.2c0.4-0.5,0.9-0.8,1.5-1.1c0.6-0.2,1.2-0.1,1.7,0.4
				c0.2,0.3,0.3,0.7,0.6,0.9c0.4,0.2,0.8,0,1-0.4c0.2-0.3,0.3-0.7,0.2-1.1c0.1-0.7,0.1-1.5-0.1-2.2c-0.2-0.7-0.7-1.3-1.4-1.5
				c-0.7-0.2-1.4,0.3-1.6,1c0,0,0,0.1,0,0.1L174.4,294.2z"/>
			<path class="st13" d="M188.3,297.7c-1.1,1.5-1.8,3.2-2.1,5c0.7-0.2,1.4-0.5,1.9-1c0.6-0.5,1.2-0.9,2-1c0.8-0.1,1.5,0.4,1.5,1.2
				c0,0,0,0,0,0c-0.1-0.8-0.1-1.7,0.1-2.5c0.1-0.8,0.1-1.7-0.2-2.5c-0.3-0.8-1.1-1.4-1.9-1.4c-0.7,0-1.3,0.7-1.3,1.4
				c0,0.1,0,0.3,0.1,0.4L188.3,297.7z"/>
			<path class="st13" d="M150.1,302.7c-0.8,1.4-1.2,3.1-1.2,4.7c0.1-0.8,0.7-1.4,1.5-1.5c0.8-0.1,1.5,0.1,2.1,0.6
				c0.2-0.7,0.2-1.5,0.1-2.3c-0.1-0.8-0.7-1.4-1.5-1.6c-0.8-0.1-1.6,0.6-1.4,1.4l-0.2-0.6L150.1,302.7z"/>
			<path class="st19" d="M153.4,280.2c1.6-2,4.9-2.8,6.8-1c1,1.1,1.6,2.5,1.7,4c0.1,1.5,0.7,2.9,1.5,4.1c1,1.1,2.9,1.6,3.9,0.5
				c0.1,2.2,0.3,4.4,0.4,6.6c2.3-4.1,3.5-8.7,3.4-13.4c0-2.3-0.4-4.6,0.1-6.8s2.2-4.4,4.5-4.5c2.5-0.1,4.5,2.3,5,4.8s-0.1,5-0.2,7.5
				c-0.2,3.9,0.5,7.7,2.2,11.2l1.6-3.2c0.5,2.2,1,4.3,1.4,6.5c0.4-4.7,0.8-9.5,1.2-14.2c0-1.3,0.3-2.7,0.9-3.9c0.6-1.2,1.8-2,3.2-2
				c1.8,0.2,2.8,2.1,3.4,3.8c4.5,12.8,2.6,26.7,0.7,40.1c1.2,0.2,2.3-1,2.6-2.3c0.1-1.3,0.4-2.5,0.7-3.7c0.5-1.2,1.9-2.2,3-1.5
				c1.6,1,0.5,4.1,2.1,4.9c0.5-4,2.1-7.7,4.5-10.9c1.1-1.4,2.8-2.9,4.5-2.4c1.3,0.5,2.2,1.6,2.4,3c0.2,1.3,2.1-4.2,1.8-2.9
				c0.8-7.7-0.8-8.5,0-16.2c0.1-1.4,2.4-3.8,1.4-4.8s-3.6-2.4-4.8-1.8s-5.1,2.5-5.9,3.6c-4.9,6.8-4.6,16.6-6.1,24.9
				c-1.3-12.6-2.6-25.3-0.3-37.7c1.3-6.9,3.6-14,1.4-20.6c-1-3-3.7-6-6.8-5.5c-2.5,0.5-4,3-5.1,5.4c-3.4,7.9-5,16.5-6.5,25l5.6-25.7
				c0.6-2.2,0.8-4.5,0.6-6.7c-0.4-2.2-1.9-4.4-4.2-4.9s-4.4,0.8-6.1,2.4c-6,5.4-8.2,13.7-10.1,21.6c0.8-2,1.2-4.1,1.2-6.3
				c-0.2-2.1-1.6-4.3-3.7-4.8c-2.7-0.6-5.2,1.8-6.4,4.3c-1.2,2.5-1.8,5.4-3.7,7.5c-1.4-1.6-4-1.5-5.7-0.3c-1.7,1.3-2.9,3-3.6,5
				c-3.1,7.1-4.5,14.8-3.9,22.5c1.5-3.1,4.8-5,8.2-4.7c-0.2-1.7-0.4-3.4-0.6-5.1"/>
			<g class="st15">
				<path class="st9" d="M160,296.5c-0.1,1.3-0.2,2.5-0.3,3.8c0.4-0.9,1.5-1.3,2.4-0.9c0.1,0.1,0.3,0.1,0.4,0.2
					c0-0.8,0.2-1.6,0.6-2.3c0.3-0.8,0.4-1.8-0.4-2.2s-1.7,0.6-2.2,1.4c0-0.3-0.1-0.6-0.1-0.9L160,296.5z"/>
				<path class="st9" d="M174.4,294.2c-1,1.2-1.7,2.6-2,4.2c0.4-0.5,0.9-0.8,1.5-1.1c0.6-0.2,1.2-0.1,1.7,0.4
					c0.2,0.3,0.3,0.7,0.6,0.9c0.4,0.2,0.8,0,1-0.4c0.2-0.3,0.3-0.7,0.2-1.1c0.1-0.7,0.1-1.5-0.1-2.2c-0.2-0.7-0.7-1.3-1.4-1.5
					c-0.7-0.2-1.4,0.3-1.6,1c0,0,0,0.1,0,0.1L174.4,294.2z"/>
				<path class="st9" d="M188.3,297.7c-1.1,1.5-1.8,3.2-2.1,5c0.7-0.2,1.4-0.5,1.9-1c0.6-0.5,1.2-0.9,2-1c0.8-0.1,1.5,0.4,1.5,1.2
					c0,0,0,0,0,0c-0.1-0.8-0.1-1.7,0.1-2.5c0.1-0.8,0.1-1.7-0.2-2.5c-0.3-0.8-1.1-1.4-1.9-1.4c-0.7,0-1.3,0.7-1.3,1.4
					c0,0.1,0,0.3,0.1,0.4L188.3,297.7z"/>
				<path class="st9" d="M150.1,302.7c-0.8,1.4-1.2,3.1-1.2,4.7c0.1-0.8,0.7-1.4,1.5-1.5c0.8-0.1,1.5,0.1,2.1,0.6
					c0.2-0.7,0.2-1.5,0.1-2.3c-0.1-0.8-0.7-1.4-1.5-1.6c-0.8-0.1-1.6,0.6-1.4,1.4l-0.2-0.6L150.1,302.7z"/>
			</g>
		</g>
	</g>
	<path class="st17" d="M140.2,366.3c2.4-6.5,4.1-11.8,4.1-12.1c0-0.6,4.1-7.3,4.1-7.3v-41.6l-1.4-6.4c-1.8-8.4-1.3-17.1,1.4-25.3
		l6-7.6h2.6l8.7-10.4c0,0,4.3-1,5.2,2.3c0.8,3.3-4.2,8.9-4.2,8.9l-2.3,9.7l3.1,9.5l1.9,0.9c0,0,1.9-16.2,1.7-19.5l5.3-14.5
		c1.4-2.3,2.7-4.7,3.8-7.2c1-2.4,5.6-4.5,7.8,0c0.8,1.7,0.8,3.6,0,5.3c-1.3,3-2.3,5.3-2.3,5.3s-1.9,12.5-2.2,12.8s0.4,18.8,0.4,18.8
		l1.6,0.8l1.9-17.5l4.6-16.2c0,0,0.3-7.9,5.8-6.5c1.8,0.1,3.3,1.2,3.9,2.9c1.3,3-1.6,21.8-1.6,21.8l-0.1,19.7l1,15.3l3.4-10.1
		c0,0,1.3-14.8,10.7-15.4c0,0,2.8-0.3,3.2,1.7s-1.8,5.8-1.8,9.6c0,2.7,0.1,5.7,0.2,7.3c0,0.7,0,1.4-0.2,2.1
		c-0.9,3-3.4,11.6-4.5,16.3c-1.3,5.8-12.1,23.1-12.1,23.1s-9.5,10.2-14.4,15.4c-2.4,2.7-6.9,14.1-10.7,24.8"/>
	<path class="st5" d="M169.1,288.5c0.6,2,0,4.2-1.4,5.7"/>
	<path class="st5" d="M153,302.5c1.4-2.1,2.7-5,2.3-7.5c-0.7-4.9-3-10.6-2-15.4c0.6-3.1,1.3-6.2,1.9-9.3"/>
	<path class="st17" d="M192.9,256.1c1.6-0.4,3.4-0.4,5,0c0-0.5,0-0.9,0.1-1.4"/>
	<path class="st17" d="M179.7,249.9c1.5,1,3.5,0.6,4.4-0.8c0.4-0.5,0.6-1.2,0.6-1.8"/>
	<path class="st17" d="M215.9,284.6c-2.9,0.7-4.8,3.4-4.6,6.3l2.4,0.7"/>
	<path class="st5" d="M183.7,285.8c0.1,1.7-0.1,5.7,0,7.4"/>
	<path class="st5" d="M185.5,288.1c-0.2,2.7-0.4,5.5-0.6,8.2c0-0.4,0-0.7,0-1"/>
	<path class="st5" d="M200.8,311.3c0.7,3,0.4,6.2-0.9,9.1"/>
	<path class="st17" d="M175.4,296.9c-2.2,2.4-1.9,8.1-0.3,11.3"/>
	<path class="st17" d="M191.5,300.8c0,2.7-0.9,5.3-2.7,7.3"/>
	<path class="st17" d="M159.6,298c-0.4,2.4,0.2,4.9,1.5,7"/>
	<path class="st17" d="M150.3,305.5c-0.1,1.9,0.4,3.8,1.5,5.3"/>
	<path class="st17" d="M163,259.4c1.2-0.5,2.6-0.3,3.5,0.6l1.2-1.6"/>
	<path class="st17" d="M173.2,266.7c1.7-1,4-0.7,5.3,0.9"/>
	<path class="st17" d="M189.3,271.7c1.8-0.8,3.9-0.8,5.7,0.1"/>
	<path class="st17" d="M153.6,280.1c1.1-1.8,3.1-2.8,5.2-2.6"/>
	<path class="st17" d="M146.9,289.7c0.1-1.3,1.1-2.4,2.4-2.7"/>
</g>
<g id="Coffee">
	<circle class="st20" cx="404.6" cy="176.4" r="41.5"/>
	<path class="st4" d="M451.5,177.5c-8.8,14.5-12,12.5-42.1,27c-15.3,7.3-30.1-16.2-20.1-40.4c0.5-1.2,4.8-7.1,4.8-7.1
		c2.7-11.9,14.5-19.3,26.4-16.6c4.8,1.1,9,3.7,12.1,7.5c5.8-5,13.7-6.9,21.2-5.1c0.3,1,0.7,2,1,3c0.1,0.4,0.2,0.8,0.4,1.1
		c0.4,1.2,0.7,2.3,1.1,3.5c0.7,2.2,1.3,4.5,1.8,6.8c-3.2-1-6.8-0.8-9.8,0.6c-2.2,1.1-4.1,2.9-6.4,3.7s-5.5,0.4-6.4-1.9
		c1.1,4.6,6,3.2,10.6,4.1C453.4,165.1,455.2,171.4,451.5,177.5z"/>
	<path class="st21" d="M437.9,170.3c0,0,7.4-1,10.9-0.5c1.7,0.2,3.2,1.1,4.3,2.4c0.3,0.4,0.5,0.8,0.5,1.3l0.4,5.8
		c0,0.7-0.2,1.3-0.6,1.8c-1.5,1.5-5.8,4.3-18.8,5.2C416.4,187.9,437.9,170.3,437.9,170.3z"/>
	<path class="st21" d="M432.5,155.3c4,5,6.2,11.2,6.1,17.7c0,6.9-8,30.5-28.5,33.4c-21.7,3-39.1-15.5-35.4-37.9
		C377.2,153,415,133.7,432.5,155.3z"/>
	<ellipse class="st9" cx="406" cy="171.4" rx="31.5" ry="29.8"/>
	<ellipse class="st11" cx="405.9" cy="173" rx="25.8" ry="24.4"/>
	<path class="st20" d="M437.4,171.4c0-16.4-14.1-29.8-31.5-29.8s-31.5,13.4-31.5,29.8"/>
	<path class="st20" d="M429.1,191.6c5.3-5.4,8.3-12.6,8.3-20.2"/>
	<path class="st20" d="M383.9,192.7c6,5.5,13.9,8.6,22,8.5c5.1,0,10.1-1.1,14.6-3.4"/>
	<path class="st20" d="M379.4,187.4c0.4,0.6,0.8,1.2,1.3,1.8"/>
	<path class="st20" d="M374.5,171.4c0,4.4,1,8.8,3,12.7"/>
	<path class="st21" d="M452.1,179.6c0,0-5.6-3.9-14.7-0.4"/>
	<path class="st21" d="M447.3,182.3c-3.8,1-7.7,1.6-11.6,1.8"/>
	<path class="st21" d="M450.2,181c-0.4,0.3-0.9,0.6-1.4,0.7"/>
	<path class="st9" d="M455.2,146.8c-0.1-0.4-0.2-0.8-0.4-1.1c-1.9-5.9-4.4-12.4-7.4-19.3c-0.5-1.3-1.1-2.6-1.7-3.9l-0.7,0.1
		c-2.9,0.3-5.9,0.6-8.2,2.3s-3.8,5.1-2.2,7.5c1.5,2.4,5.4,3.8,4.8,6.6c-6.4,3.6-14.2,3.2-21.4,5c-4.3,1.1-8.4,3-11.9,5.6l0,0
		c-1.1,0.8-2.2,1.8-3.2,2.7c-0.5,0.4-0.9,0.9-1.3,1.4l0,0c-0.6,0.7-1,1.6-1.1,2.5c-0.2,2.7,2.2,4.5,4.8,5.6c0.3,0.1,0.4,0.5,0.3,0.8
		c-0.1,0.2-0.2,0.3-0.3,0.3c-1.7,0.6-3.3,1.5-4.7,2.7l0,0c-0.5,0.4-0.5,1.2-0.1,1.6c0.3,0.3,0.7,0.4,1.1,0.4h0.4c1-0.1,2,0,3,0.4
		c1.4,0.3,2.4,1.5,2.7,2.9c0.2,2-2.2,3.9-5.2,4.1c-0.7,0.1-0.2,0.9,0.9,1.1c2.1,0.3,4.3,0.1,6.4-0.5c2.5-0.6,5.2-1.5,6.6-3.6
		c0.6-0.9,0.8-2.1,0.6-3.2c-0.1-1.5-1.2-2.7-2.7-2.9c4.6-0.5,9.2-1.5,13.7-2.8l0,0l1.4-0.4c1.4-0.4,2.7-0.9,3.9-1.7
		c0.7-0.5,1.3-1.1,1.7-1.9c1-2-0.4-5.2-2.6-4.8c6.5-2.5,13.3-4,19.8-6.3C453.1,147.7,454.2,147.3,455.2,146.8z"/>
</g>
<g id="Monitor">
	<path class="st4" d="M405.8,60.3c-6.2,5.3-12.8,10-19.9,14c-36.4,21.5-77.5,34.4-119.4,40.7c-41.8,6.3-84.4,6.1-126.6,2.6
		c-8.3-0.7-16.7-1.5-24.3-4.9c-6.4-2.8-12.3-7.8-15-14.2c9.1-10.4,17.6-20.9,27.1-30.9c2.3-2.4,4.6-4.7,6.9-7c2-1.9,4-3.8,6.1-5.6
		c2.4-2.1,4.8-4.2,7.4-6.2c3.6-2.8,7.3-5.4,11.3-7.9c1-0.6,2-1.2,2.9-1.8c99.7-62,173.1-41.7,222.1,0c3.7,3.2,7.3,6.4,10.7,9.8
		c2.1,2,4.1,4.1,6,6.2c0.2,0.2,0.4,0.4,0.6,0.7C403.2,57.4,404.5,58.8,405.8,60.3z"/>
	<path class="st21" d="M409.7,50.4L74.2,51.9l5.1-7.6c2.4-3.7,6.5-5.8,10.9-5.8h303.6c4,0,7.7,1.8,10.2,4.9L409.7,50.4z"/>
	<path class="st22" d="M229.5,100.7h18.4c18.9,0,34.1,15.3,34.1,34.2v18.4c0,18.9-15.3,34.1-34.1,34.1h-18.4
		c-18.9,0-34.2-15.3-34.2-34.1v-18.4C195.3,116,210.6,100.7,229.5,100.7z"/>
	<path class="st23" d="M211.1,151.3v12.3c0,3.9,3.1,7,7,7h42.3c3.8,0,7-3.1,7-6.9c0-5.6,0.3-12.4,0.3-12.4L211.1,151.3z"/>
	<path class="st24" d="M365.8,155.4H118.6c-2.6,0-4.9-1.6-5.9-4L74.5,53.5c-0.8-2,0.2-4.3,2.2-5.1c0.4-0.2,0.9-0.3,1.4-0.3h328
		c2.2,0,3.9,1.7,3.9,3.9c0,0.5-0.1,1-0.3,1.4l-38.1,97.9C370.7,153.8,368.4,155.4,365.8,155.4z"/>
	<polygon class="st11" points="367.6,146.9 116.1,146.9 81.5,54.4 402,54.4 	"/>
	<rect x="211.3" y="155.3" class="st11" width="56.1" height="3.8"/>
	<path class="st13" d="M330.9,143H153.3c-1,0-1.9-0.4-2.1-1l-25.3-80.3c-0.3-0.9,0.5-1.6,1.8-1.6h228.7c1.3,0,2,0.7,1.8,1.6
		L332.9,142C332.8,142.5,331.8,143,330.9,143z"/>
	<polygon class="st11" points="330.2,141.1 153.9,141.1 132.5,70.6 351.7,70.6 	"/>
	<path class="st9" d="M179.2,88.1h-33.4c-0.8,0-1.4,0.4-1.2,1c0.3,0.7,1,1.1,1.8,1h33.2c0.8,0,1.4-0.4,1.3-1S180.1,88.1,179.2,88.1z
		"/>
	<path class="st9" d="M180.4,94.2H152c-0.8,0-1.4,0.4-1.2,1c0.3,0.6,1,1,1.7,0.9h28.2c0.8,0,1.4-0.4,1.3-0.9S181.1,94.2,180.4,94.2z
		"/>
	<path class="st19" d="M181.4,100.1h-32.2c-0.8,0-1.3,0.4-1.2,0.9c0.3,0.6,1,1,1.7,0.9h32c0.8,0,1.4-0.4,1.3-0.9
		S182.2,100.1,181.4,100.1z"/>
	<path class="st9" d="M182.5,105.8h-18.9c-0.8,0-1.3,0.4-1.2,0.9s0.9,0.9,1.6,0.9h18.8c0.8,0,1.3-0.4,1.2-0.9
		S183.2,105.8,182.5,105.8z"/>
	<path class="st9" d="M183.5,111.2h-31.1c-0.8,0-1.3,0.4-1.1,0.9s0.9,0.9,1.6,0.9h30.9c0.8,0,1.3-0.4,1.2-0.9
		S184.2,111.2,183.5,111.2z"/>
	<path class="st9" d="M184.4,116.6h-25.1c-0.8,0-1.3,0.4-1.1,0.8s0.8,0.8,1.6,0.8h25c0.8,0,1.3-0.4,1.2-0.8S185.2,116.6,184.4,116.6
		z"/>
	<path class="st9" d="M185.4,121.7h-24.7c-0.8,0-1.2,0.4-1.1,0.8s0.8,0.8,1.6,0.8h24.6c0.7,0,1.3-0.4,1.2-0.8
		S186.1,121.7,185.4,121.7z"/>
	<path class="st9" d="M186.3,126.7h-27c-0.7,0-1.2,0.4-1.1,0.8s0.8,0.8,1.5,0.8h26.8c0.7,0,1.3-0.4,1.2-0.8S187,126.7,186.3,126.7z"
		/>
	<path class="st19" d="M187.2,131.5h-17.4c-0.7,0-1.2,0.3-1.1,0.8s0.8,0.8,1.5,0.8h17.3c0.7,0,1.2-0.3,1.2-0.8
		S187.9,131.5,187.2,131.5z"/>
	<path class="st19" d="M178.1,81.8h-24.9c-0.8,0-1.4,0.5-1.2,1c0.3,0.7,1,1.1,1.8,1h24.7c0.8,0,1.4-0.4,1.3-1
		C179.5,82.1,178.8,81.7,178.1,81.8z"/>
	<path class="st9" d="M176.9,75.2h-34.6c-0.9,0-1.4,0.5-1.2,1.1c0.3,0.7,1.1,1.1,1.8,1.1h34.4c0.9,0,1.5-0.5,1.4-1.1
		C178.3,75.6,177.6,75.2,176.9,75.2z"/>
	<path class="st9" d="M188,136.1h-28.7c-0.7,0-1.2,0.3-1.1,0.7s0.8,0.7,1.5,0.7h28.6c0.7,0,1.2-0.3,1.1-0.7S188.8,136.1,188,136.1z"
		/>
	<polygon class="st19" points="191,90.3 197.4,90.3 197.1,87.9 190.6,87.9 	"/>
	<polygon class="st19" points="191.9,96.4 198.2,96.4 197.9,94 191.5,94 	"/>
	<polygon class="st19" points="192.7,102.2 199,102.2 198.7,99.9 192.4,99.9 	"/>
	<polygon class="st19" points="193.6,107.8 199.7,107.8 199.4,105.6 193.2,105.6 	"/>
	<polygon class="st19" points="194.4,113.2 200.4,113.2 200.1,111 194.1,111 	"/>
	<polygon class="st19" points="195.2,118.4 201.1,118.4 200.8,116.3 194.9,116.3 	"/>
	<polygon class="st19" points="195.9,123.5 201.8,123.5 201.5,121.5 195.6,121.5 	"/>
	<polygon class="st19" points="196.7,128.4 202.4,128.4 202.2,126.5 196.4,126.5 	"/>
	<polygon class="st19" points="197.4,133.2 203.1,133.2 202.8,131.3 197.1,131.3 	"/>
	<polygon class="st19" points="190,84.1 196.6,84.1 196.3,81.6 189.6,81.6 	"/>
	<polygon class="st19" points="189.1,77.6 195.8,77.6 195.4,75 188.6,75 	"/>
	<polygon class="st19" points="198.1,137.8 203.6,137.8 203.4,135.9 197.8,135.9 	"/>
	<path class="st9" d="M232.2,127.4c0-0.4,0.6-0.8,1.3-0.8h95.8c0.7,0,1.2,0.4,1.1,0.8c-0.3,0.5-0.9,0.8-1.5,0.8h-95.3
		C232.8,128.2,232.2,127.9,232.2,127.4z"/>
	<path class="st9" d="M330.3,123.3h-53.1c-0.7,0-1.3-0.4-1.2-0.8s0.7-0.8,1.4-0.8h53.3c0.7,0,1.2,0.4,1.1,0.8
		C331.5,123,330.9,123.4,330.3,123.3z"/>
	<path class="st19" d="M264.6,123.3h-16.5c-0.7,0-1.3-0.4-1.3-0.8s0.6-0.8,1.4-0.8h16.6c0.7,0,1.3,0.4,1.3,0.8
		C266,122.9,265.4,123.3,264.6,123.3z"/>
	<path class="st9" d="M299.1,118.2h-74.8c-0.8,0-1.4-0.4-1.4-0.8s0.6-0.8,1.3-0.8h75.2c0.8,0,1.3,0.4,1.2,0.8
		C300.5,117.9,299.8,118.2,299.1,118.2z"/>
	<path class="st19" d="M208.6,116.6h5.3c0.8,0,1.4,0.4,1.4,0.8s-0.5,0.8-1.3,0.8h-5.3c-0.8,0-1.4-0.4-1.4-0.8
		S207.8,116.6,208.6,116.6z"/>
	<path class="st9" d="M309.9,112.1c-0.1,0.5-0.8,0.9-1.6,0.9h-70.5c-0.8,0-1.4-0.4-1.4-0.9s0.6-0.9,1.4-0.9h70.9
		C309.5,111.2,310,111.6,309.9,112.1z"/>
	<path class="st9" d="M208,111.2h20c0.8,0,1.4,0.4,1.4,0.9s-0.6,0.9-1.4,0.9h-19.9c-0.8,0-1.4-0.4-1.5-0.9S207.2,111.2,208,111.2z"
		/>
	<path class="st9" d="M207.4,105.8h76.9c0.8,0,1.4,0.4,1.3,0.9c-0.1,0.5-0.8,0.9-1.5,0.9h-76.5c-0.8,0-1.4-0.4-1.5-0.9
		S206.6,105.8,207.4,105.8z"/>
	<path class="st9" d="M257.4,101.9c-0.8,0-1.4-0.4-1.4-0.9s0.7-0.9,1.5-0.9H298c0.8,0,1.4,0.4,1.3,0.9c-0.1,0.5-0.8,0.9-1.6,0.9
		H257.4z"/>
	<path class="st9" d="M206.8,100.1h35.1c0.8,0,1.4,0.4,1.4,0.9s-0.6,0.9-1.4,0.9H207c-0.8,0-1.5-0.4-1.5-0.9S206,100.1,206.8,100.1z
		"/>
	<path class="st9" d="M338.1,96.1h-96.7c-0.8,0-1.5-0.4-1.5-0.9s0.6-1,1.5-1h97.2c0.8,0,1.3,0.4,1.2,1
		C339.5,95.8,338.8,96.2,338.1,96.1z"/>
	<path class="st9" d="M339.8,90.1h-85.1c-0.8,0-1.5-0.4-1.5-1s0.7-1,1.5-1h85.6c0.8,0,1.4,0.4,1.2,1
		C341.2,89.8,340.5,90.2,339.8,90.1z"/>
	<path class="st19" d="M341.6,83.9h-17.8c-0.8,0-1.4-0.4-1.3-1c0.3-0.7,1-1.1,1.8-1h17.9c0.8,0,1.4,0.5,1.2,1
		C343,83.5,342.3,83.9,341.6,83.9z"/>
	<path class="st9" d="M311.3,83.9h-65.4c-0.8,0-1.5-0.4-1.5-1s0.7-1,1.5-1h65.8c0.8,0,1.4,0.5,1.3,1C312.7,83.5,312,83.9,311.3,83.9
		z"/>
	<path class="st9" d="M210.1,131.5h60.4c0.7,0,1.3,0.3,1.2,0.8s-0.6,0.8-1.4,0.8h-60.1c-0.7,0-1.3-0.3-1.4-0.8
		S209.4,131.5,210.1,131.5z"/>
	<path class="st9" d="M210.7,136.1h92.8c0.7,0,1.2,0.3,1.1,0.7c-0.1,0.4-0.7,0.7-1.4,0.7h-92.4c-0.7,0-1.3-0.3-1.4-0.7
		S209.9,136.1,210.7,136.1z"/>
	<path class="st9" d="M308,77.4h-47.3c-0.8,0-1.5-0.5-1.5-1.1c0-0.6,0.7-1.1,1.6-1.1h47.5c0.9,0,1.5,0.5,1.3,1.1
		C309.5,77,308.8,77.4,308,77.4z"/>
	<path class="st19" d="M247.4,77.4h-43c-0.9,0-1.6-0.5-1.7-1.1s0.6-1.1,1.4-1.1h43.2c0.9,0,1.5,0.5,1.5,1.1S248.2,77.4,247.4,77.4z"
		/>
	<path class="st19" d="M284,131.5c0.7,0,1.3,0.3,1.2,0.8s-0.7,0.8-1.4,0.8h-4.6c-0.7,0-1.2-0.3-1.2-0.8s0.7-0.8,1.4-0.8H284z"/>
	<path class="st19" d="M226.7,127.4c0,0.4-0.6,0.8-1.3,0.8H219c-0.7,0-1.4-0.4-1.4-0.8s0.5-0.8,1.3-0.8h6.4
		C226,126.7,226.7,127,226.7,127.4z"/>
	<path class="st19" d="M303.4,106.7c-0.1,0.5-0.8,0.9-1.6,0.9h-7.4c-0.8,0-1.3-0.4-1.3-0.9s0.8-0.9,1.6-0.9h7.5
		C303,105.8,303.5,106.2,303.4,106.7z"/>
	<path class="st19" d="M326.6,111.2c0.8,0,1.3,0.4,1.2,0.9c-0.3,0.6-1,0.9-1.6,0.9h-5.9c-0.8,0-1.3-0.4-1.2-0.9
		c0.3-0.6,0.9-0.9,1.6-0.9H326.6z"/>
	<path class="st19" d="M229.6,96.1c-0.8,0-1.5-0.4-1.5-0.9s0.6-1,1.4-1h6.3c0.8,0,1.5,0.4,1.5,1s-0.6,0.9-1.4,0.9H229.6z"/>
	<path class="st9" d="M143.7,65.3c0.5,1.1,0,2.3-1.1,2.8c-0.3,0.1-0.7,0.2-1,0.2c-1.8-0.1-3.4-1.3-3.9-3c-0.5-1.1,0-2.3,1.1-2.8
		c0.3-0.1,0.7-0.2,1-0.2C141.6,62.4,143.1,63.6,143.7,65.3z"/>
	<path class="st9" d="M151.9,65.4c0.4,1.1-0.1,2.4-1.2,2.9c-0.3,0.1-0.6,0.2-1,0.1c-1.8-0.1-3.3-1.3-3.8-3c-0.4-1.1,0.1-2.4,1.3-2.9
		c0.3-0.1,0.6-0.2,0.9-0.1C149.8,62.5,151.3,63.7,151.9,65.4z"/>
	<path class="st9" d="M160.1,65.3c0.4,1.2-0.2,2.5-1.4,2.9c-0.3,0.1-0.6,0.1-0.9,0.1c-1.8-0.1-3.3-1.3-3.8-3
		c-0.4-1.2,0.2-2.5,1.4-2.9c0.3-0.1,0.6-0.1,0.8-0.1C158.1,62.4,159.6,63.6,160.1,65.3z"/>
	<polygon class="st25" points="81.5,54.4 108.5,126.5 141,54.4 	"/>
	<polygon class="st25" points="127,146.9 180.9,54.4 237.4,54.4 158,146.9 	"/>
	<polygon class="st25" points="261.7,54 177.6,146.9 190.6,146.9 277.7,54.4 	"/>
	<polygon class="st25" points="278.3,146.9 370.7,54.4 383.7,54.4 288.5,146.9 	"/>
</g>
<g id="Code">
	<path class="st21" d="M153,187.1h-21.1c-2.8,0-5,2.2-5,5v10.3c0,2.8,2.2,5,5,5h0h5.5l4.2,9.5l5.9-9.5h5.5c2.8,0,5-2.2,5-5V192
		C158,189.3,155.8,187.1,153,187.1z"/>
	<path class="st11" d="M139.6,192.9c0-0.6,0.4-1,1-1c0.5,0,1,0.4,1,0.9c0,0.6-0.4,1-1,1C140,193.9,139.6,193.5,139.6,192.9z
		 M139.8,195h1.6v6.9h-1.6V195z"/>
	<path class="st11" d="M145.3,194.7v0.4h1.9v1.3h-1.8v5.5h-1.6v-5.5h-1.1v-1.3h1.1v-0.4c-0.1-1.2,0.8-2.3,2-2.4c0.1,0,0.3,0,0.4,0
		c0.5,0,1,0.1,1.5,0.4l-0.4,1.2c-0.3-0.2-0.6-0.3-0.9-0.3C145.6,193.6,145.3,193.9,145.3,194.7z"/>
	<path class="st21" d="M217.3,188.5h-21.1c-2.8,0-5,2.2-5,5v10.3c0,2.8,2.2,5,5,5h0h5.5l4.2,9.5l5.9-9.5h5.5c2.8,0,5-2.2,5-5v-10.3
		C222.2,190.7,220,188.5,217.3,188.5z"/>
	<path class="st11" d="M200.6,200.4h-5.4c0.2,1,1.2,1.7,2.2,1.6c0.7,0,1.4-0.2,1.9-0.8l0.9,1c-1.5,1.5-3.9,1.5-5.4,0
		c-0.6-0.6-1-1.5-1.1-2.4c-0.1-1.9,1.4-3.5,3.3-3.5c0.1,0,0.2,0,0.2,0c1.8-0.1,3.4,1.4,3.5,3.2c0,0.1,0,0.2,0,0.3
		C200.6,200.1,200.6,200.2,200.6,200.4z M195.2,199.3h3.9c-0.1-1-1-1.7-1.9-1.7C196.2,197.6,195.3,198.3,195.2,199.3L195.2,199.3z"
		/>
	<path class="st11" d="M202.1,193.8h1.6v9.5h-1.6V193.8z"/>
	<path class="st11" d="M205.1,202.6l0.6-1.2c0.7,0.4,1.5,0.7,2.4,0.7c1,0,1.4-0.3,1.4-0.8c0-1.3-4.2-0.1-4.2-2.8
		c0-1.3,1.2-2.1,3-2.1c0.9,0,1.8,0.2,2.6,0.6l-0.6,1.2c-0.6-0.4-1.3-0.5-2-0.5c-1,0-1.4,0.3-1.4,0.8c0,1.4,4.2,0.1,4.2,2.8
		c0,1.3-1.2,2.1-3.1,2.1C207,203.4,206,203.2,205.1,202.6z"/>
	<path class="st11" d="M218.9,200.4h-5.4c0.2,1,1.2,1.7,2.2,1.6c0.7,0,1.4-0.2,1.9-0.8l0.9,1c-1.5,1.5-3.9,1.5-5.4,0
		c-0.6-0.6-1-1.5-1.1-2.4c-0.1-1.9,1.4-3.5,3.3-3.5c0.1,0,0.2,0,0.2,0c1.8-0.1,3.4,1.4,3.5,3.2c0,0.1,0,0.2,0,0.3
		C218.9,200.1,218.9,200.2,218.9,200.4z M213.5,199.3h3.9c-0.1-1-1-1.7-1.9-1.7C214.5,197.6,213.6,198.4,213.5,199.3L213.5,199.3z"
		/>
	<path class="st21" d="M279.5,187.9h-21.1c-2.7,0-5,2.2-5,4.9v10.3c0,2.8,2.2,5,5,5l0,0h5.5l4.2,9.5l5.9-9.5h5.5c2.8,0,5-2.2,5-5
		l0,0v-10.3C284.5,190.1,282.3,187.9,279.5,187.9z"/>
	<path class="st11" d="M263.3,195.5v0.4h1.9v1.3h-1.8v5.5h-1.6v-5.5h-1.1v-1.3h1.1v-0.4c-0.1-1.2,0.8-2.3,2-2.4c0.1,0,0.3,0,0.4,0
		c0.5,0,1,0.1,1.5,0.4l-0.5,1.2c-0.3-0.2-0.6-0.3-0.9-0.3C263.6,194.4,263.3,194.8,263.3,195.5z"/>
	<path class="st11" d="M265.6,199.3c-0.1-2,1.5-3.7,3.5-3.8c2-0.1,3.7,1.5,3.8,3.5c0.1,2-1.5,3.7-3.5,3.8c0,0-0.1,0-0.1,0
		c-1.9,0.1-3.5-1.4-3.6-3.3C265.6,199.5,265.6,199.4,265.6,199.3z M271.2,199.3c-0.1-1.1-1-1.9-2.1-1.8c-1.1,0.1-1.9,1-1.8,2.1
		c0.1,1,0.9,1.8,2,1.8c1.1,0,2-0.9,2-2C271.3,199.4,271.3,199.3,271.2,199.3L271.2,199.3z"/>
	<path class="st11" d="M278.4,195.8v1.5c-0.1,0-0.2,0-0.4,0c-1-0.1-1.9,0.7-2,1.7c0,0.1,0,0.3,0,0.4v3.3h-1.6v-6.9h1.5v1
		C276.5,196.1,277.4,195.7,278.4,195.8z"/>
	<path class="st21" d="M340.9,187.1h-21.1c-2.8,0-5,2.2-5,5v10.3c0,2.8,2.2,5,5,5c0,0,0,0,0,0h5.5l4.2,9.5l5.9-9.5h5.5
		c2.8,0,5-2.2,5-5V192C345.8,189.3,343.6,187.1,340.9,187.1z"/>
	<path class="st11" d="M327.6,194.7h5.9v1.3h-5.9V194.7z M327.6,197.8h5.9v1.3h-5.9V197.8z"/>
	<path class="st21" d="M185.2,175.2h-21.1c-2.8,0-5,2.2-5,5v10.3c0,2.8,2.2,5,5,5h5.5l4.2,9.5l5.9-9.5h5.5c2.8,0,5-2.2,5-5v-10.3
		C190.2,177.4,188,175.2,185.2,175.2C185.2,175.2,185.2,175.2,185.2,175.2z"/>
	<path class="st11" d="M169.7,179.4h3.1v1.3h-1.5v9.4h1.5v1.3h-3.1V179.4z"/>
	<path class="st11" d="M176.7,191.5v-1.3h1.4v-9.4h-1.4v-1.3h3.1v12L176.7,191.5z"/>
	<path class="st21" d="M247.9,174.1h-21.1c-2.8,0-5,2.2-5,5v10.3c0,2.8,2.2,5,5,5h5.5l4.2,9.5l5.9-9.5h5.5c2.8,0,5-2.2,5-5v-10.3
		C252.9,176.3,250.7,174.1,247.9,174.1z"/>
	<path class="st11" d="M233.1,184.4c0.5,0.2,0.8,0.5,0.8,1.3v2.4c-0.1,0.5,0.2,0.9,0.7,1c0.1,0,0.2,0,0.3,0h0.3v1.3h-0.6
		c-1,0.2-2-0.6-2.2-1.6c0-0.2,0-0.3,0-0.5v-2.6c0-0.4-0.2-0.6-0.6-0.6h-0.4v-1.3h0.4c0.4,0,0.6-0.2,0.6-0.6v-2.6
		c-0.1-1,0.6-2,1.7-2.1c0.2,0,0.3,0,0.5,0h0.6v1.3h-0.3c-0.5-0.1-0.9,0.2-1,0.7c0,0.1,0,0.2,0,0.3v2.4
		C233.8,183.9,233.6,184.2,233.1,184.4z"/>
	<path class="st11" d="M242.9,183.7v1.3h-0.4c-0.4,0-0.6,0.2-0.6,0.6v2.6c0.1,1-0.6,2-1.7,2.1c-0.2,0-0.3,0-0.5,0H239v-1.3h0.3
		c0.5,0.1,0.9-0.2,1-0.7c0-0.1,0-0.2,0-0.3v-2.4c0-0.8,0.2-1.1,0.7-1.3c-0.5-0.2-0.7-0.5-0.7-1.3v-2.4c0.1-0.5-0.2-0.9-0.7-1
		c-0.1,0-0.2,0-0.3,0H239v-1.3h0.6c1-0.2,2,0.6,2.2,1.6c0,0.2,0,0.3,0,0.5v2.6c0,0.4,0.2,0.6,0.6,0.6L242.9,183.7z"/>
	<path class="st21" d="M310,172.1h-21.1c-2.8,0-5,2.2-5,5v10.3c0,2.8,2.2,5,5,5h5.5l4.2,9.5l5.9-9.5h5.5c2.8,0,5-2.2,5-5V177
		C314.9,174.3,312.7,172,310,172.1z"/>
	<path class="st11" d="M298.6,179.7c-0.1-0.6,0.4-1.1,1-1.2c0.6-0.1,1.1,0.4,1.2,1c0,0.1,0,0.1,0,0.2c0.1,0.6-0.4,1.1-1,1.2
		c-0.6,0.1-1.1-0.4-1.2-1C298.6,179.8,298.6,179.7,298.6,179.7z M300.7,184.5c0,0.4-0.1,0.8-0.3,1.1l-0.7,1.8h-1l0.5-2
		c-0.4-0.2-0.6-0.5-0.6-0.9c0-0.6,0.5-1,1-1S300.7,183.9,300.7,184.5L300.7,184.5z"/>
	<path class="st21" d="M227.5,351.5h21.1c2.8,0,5-2.2,5-5v-10.2c0-2.8-2.2-5-5-5h-5.5l-1.6-9.5l-8.5,9.5h-5.5c-2.8,0-5,2.2-5,5v10.3
		C222.5,349.3,224.8,351.5,227.5,351.5z"/>
	<path class="st11" d="M234.9,339.3l-4.4,1.7l4.4,1.6v1.4l-5.9-2.3v-1.4l5.9-2.3L234.9,339.3z"/>
	<path class="st11" d="M239.6,334.6h1.4l-4.2,12.1h-1.4L239.6,334.6z"/>
	<path class="st11" d="M247.2,340.2v1.4l-5.9,2.3v-1.3l4.4-1.6l-4.4-1.7V338L247.2,340.2z"/>
	<path class="st21" d="M93.4,276.7h21.1c2.7,0,5-2.2,5-5v-10.3c0-2.8-2.2-5-5-5H109l1.2-9.5l-11.3,9.5h-5.5c-2.8,0-5,2.2-5,5v10.3
		C88.4,274.5,90.6,276.7,93.4,276.7z"/>
	<path class="st11" d="M99.6,270.2c0-0.6,0.4-1,1-1s1,0.4,1,1s-0.4,1-1,1S99.6,270.8,99.6,270.2z M99.7,262.1h1.9l-0.3,6H100
		L99.7,262.1z"/>
	<path class="st11" d="M103.3,264.4h5.9v1.3h-5.9V264.4z M103.3,267.6h5.9v1.3h-5.9V267.6z"/>
</g>
<g id="Mouse">
	<path class="st9" d="M431.1,265.1c0,4-0.3,7.9-1,11.9c-2.9,17.3-12,29.9-22.8,29.9c-1,0-1.9-0.1-2.9-0.3
		c-11.8-2.5-20.9-20.1-20.9-41.5c0-23.1,10.6-31.2,23.7-31.2C420.5,233.9,431.1,242,431.1,265.1z"/>
	<g>
		<defs>
			<path id="SVGID_00000180328420108177199350000008538999521059455904_" d="M431.1,265.1c0,4-0.3,7.9-1,11.9
				c-2.9,17.3-12,29.9-22.8,29.9c-1,0-1.9-0.1-2.9-0.3c-11.8-2.5-20.9-20.1-20.9-41.5c0-23.1,10.6-31.2,23.7-31.2
				C420.5,233.9,431.1,242,431.1,265.1z"/>
		</defs>
		<clipPath id="SVGID_00000068647524647216868010000012200882384335766939_">
			<use xlink:href="#SVGID_00000180328420108177199350000008538999521059455904_"  style="overflow:visible;"/>
		</clipPath>
		<g style="clip-path:url(#SVGID_00000068647524647216868010000012200882384335766939_);">
			<path class="st13" d="M422.6,265.4c0.9,12.4-1.2,24.8-4.8,36.7c8.9-7.3,13-18.9,16.8-29.8c2.7-8,5.4-16.1,4.9-24.5
				c-0.5-8.4-5-17.1-12.8-20c-3.9-1.4-8.2-1.4-12.1,0.2c-6.6,2.6-3,4.8-0.2,9.5C419.1,246,422,255.6,422.6,265.4z"/>
			<path class="st14" d="M422.6,265.4c0.9,12.4-1.2,24.8-4.8,36.7c8.9-7.3,13-18.9,16.8-29.8c2.7-8,5.4-16.1,4.9-24.5
				c-0.5-8.4-5-17.1-12.8-20c-3.9-1.4-8.2-1.4-12.1,0.2c-6.6,2.6-3,4.8-0.2,9.5C419.1,246,422,255.6,422.6,265.4z"/>
		</g>
	</g>
	<path class="st17" d="M431.1,265.1c0,4-0.3,7.9-1,11.9c-2.9,17.3-12,29.9-22.8,29.9c-1,0-1.9-0.1-2.9-0.3
		c-11.8-2.5-20.9-20.1-20.9-41.5c0-23.1,10.6-31.2,23.7-31.2C420.5,233.9,431.1,242,431.1,265.1z"/>
	<path class="st5" d="M420.2,286.3c-1.6,5.3-4.2,10.3-7.8,14.6"/>
	<path class="st17" d="M420.9,283.4c-0.1,0.6-0.3,1.1-0.4,1.7"/>
	<path class="st5" d="M420.9,265c1.2,5.3,1.4,10.9,0.5,16.3"/>
	<path class="st17" d="M383.7,265.1c0,0,27-10.7,47.5,0"/>
	<path class="st5" d="M407.4,233.9c0,0,2.7,10,3,26.3"/>
	<path class="st24" d="M411.2,246c0.3,3.1-0.2,5.8-1.2,5.9c-1,0.2-2.1-2.2-2.5-5.3s0.2-5.8,1.2-5.9S410.9,242.9,411.2,246z"/>
	<path class="st17" d="M396.8,314.9h-31.7c-3.9,0-7.2-2.9-7.7-6.7c-0.1-0.4-0.1-0.7-0.1-1.1v-74.6c0-0.4,0-0.7,0.1-1.1
		c0.5-3.8,3.8-6.7,7.7-6.7h89.7c1.3,0,2.6,0.4,3.7,1"/>
</g>
</svg>
