<svg id="Layer_1" data-name="Layer 1" xmlns="http://www.w3.org/2000/svg" viewBox="0 0 2500 679.08"><defs><style>.cls-1,.cls-2{fill:#fff;}.cls-1{fill-rule:evenodd;}.cls-2{font-size:533.99px;font-family:MyriadPro-Regular, Myriad Pro;letter-spacing:-0.01em;}.cls-3{letter-spacing:0em;}</style></defs><path class="cls-1" d="M-290.75,60.46v519.3h-79.9V699.6h59.92v39.94h-439.4a100.6,100.6,0,0,1-76.3-35.15A100.79,100.79,0,0,1-850,639.68V160.32a99.9,99.9,0,0,1,99.87-99.86Zm-119.84,519.3H-745.74c-31.56,0-58.72,21.57-63.51,49.53a77.94,77.94,0,0,0-.8,9.19v1.2a57.49,57.49,0,0,0,14.38,38.74,58.79,58.79,0,0,0,45.54,21.18h339.54v-40H-765.31V619.7h354.72V579.76Zm-20-199.73H-710.19V420h279.62V380Zm20-199.73H-730.16V340.08h319.57V180.3ZM-690.22,300.13h239.68V220.24H-690.22v79.89Z" transform="translate(850 -60.46)"/><text class="cls-2" transform="translate(666.78 507.21)">C<tspan class="cls-3" x="303.84" y="0">ourses</tspan></text></svg>