<?xml version="1.0" encoding="utf-8"?>
<!-- Generator: Adobe Illustrator 26.0.1, SVG Export Plug-In . SVG Version: 6.00 Build 0)  -->
<svg version="1.1" id="Layer_1" xmlns="http://www.w3.org/2000/svg" xmlns:xlink="http://www.w3.org/1999/xlink" x="0px" y="0px"
	 viewBox="0 0 50 50" style="enable-background:new 0 0 50 50;" xml:space="preserve">
<style type="text/css">
	.st0{fill:#FFFFFF;}
</style>
<g transform="">
	<g>
		<path class="st0" d="M46.5,11.9v28c0,3.9-3.1,7-7,7h-28c-3.9,0-7-3.1-7-7v-28c0-3.9,3.1-7,7-7h28C43.3,4.9,46.5,8,46.5,11.9z"/>
	</g>
	<g>
		<g transform="scale(5.12,5.12)">
			<path d="M4,3.1H3.4L6.1,7h0.6L4,3.1z M4,3.1H3.4L6.1,7h0.6L4,3.1z M7.7,1H2.2C1.5,1,0.9,1.6,0.9,2.3v5.5c0,0.8,0.6,1.4,1.4,1.4
				h5.5c0.8,0,1.4-0.6,1.4-1.4V2.3C9.1,1.6,8.5,1,7.7,1z M5.9,7.4L4.7,5.6L3.1,7.4H2.6l1.8-2.1L2.6,2.7h1.6l1.1,1.6l1.3-1.6h0.5
				L5.5,4.6l2,2.8H5.9z M3.4,3.1L6.1,7h0.6L4,3.1H3.4z"/>
		</g>
	</g>
</g>
</svg>
