<?xml version="1.0" encoding="utf-8"?>
<!-- Generator: Adobe Illustrator 24.3.0, SVG Export Plug-In . SVG Version: 6.00 Build 0)  -->
<svg version="1.1" xmlns="http://www.w3.org/2000/svg" xmlns:xlink="http://www.w3.org/1999/xlink" x="0px" y="0px"
	 viewBox="0 0 522.6 94.9" style="enable-background:new 0 0 522.6 94.9;" xml:space="preserve">
<style type="text/css">
	.st0{display:none;}
	.st1{display:inline;}
	.st2{fill:#FFFFFF;}
	.st3{font-family:'Poppins-SemiBold';}
	.st4{font-size:14.19px;}
</style>
<g id="Layer_2" class="st0">
	<rect x="-24" y="-85.1" class="st1" width="640" height="269"/>
</g>
<g id="Layer_1">
	<g id="Layer_1_1_">
		<g id="Layer_5">
			<text transform="matrix(1 0 0 1 150.35 18.34)" class="st2 st3 st4">codepolarity io</text>
			<path class="st2" d="M243.6,16.9c-0.8,0-1.4,0.6-1.4,1.4s0.6,1.4,1.4,1.4s1.4-0.6,1.4-1.4l0,0C245,17.5,244.4,16.9,243.6,16.9z
				 M243.6,18.9c-0.3,0-0.6-0.3-0.6-0.6c0-0.3,0.3-0.6,0.6-0.6s0.6,0.3,0.6,0.6l0,0C244.2,18.6,244,18.9,243.6,18.9L243.6,18.9
				L243.6,18.9z"/>
			<path class="st2" d="M119.3,17.7c0.2-0.9,0.6-1.7,1.2-2.3c0.6-0.9,1.5-1.6,2.5-2.1c0.8-0.4,1.7-0.6,2.6-0.6c1,0,1.9,0.1,2.8,0.5
				c1,0.4,1.8,1.2,2.5,2c0.7,0.9,1.2,1.9,1.2,3v7.4h-12.9v-3.5c0-1,0-2,0-3C119.2,18.7,119.2,18.2,119.3,17.7z"/>
			<path class="st2" d="M144.6,8.3c-0.2,0.9-0.6,1.7-1.2,2.3c-0.7,0.9-1.5,1.6-2.5,2.1c-0.8,0.4-1.7,0.6-2.6,0.6
				c-1,0-1.9-0.1-2.8-0.5c-1-0.4-1.8-1.2-2.5-2c-0.7-0.9-1.1-1.9-1.2-3V0.5h12.9V4c0,1,0,2,0,3C144.8,7.4,144.7,7.9,144.6,8.3z"/>
			<path class="st2" d="M126.4,0c0.7,0.1,1.4,0.4,2,0.7c1.7,0.8,3,2.4,3.4,4.3c0.1,0.4,0.1,0.7,0.1,1.1V13H119V0H126.4z"/>
			<path class="st2" d="M137.5,26c-0.7-0.1-1.4-0.3-2-0.7c-1.7-0.8-3-2.4-3.4-4.3c-0.1-0.4-0.1-0.7-0.1-1.1v-6.8l12.9-0.1l0.1,12.9
				h-4.3H138C137.8,26.1,137.6,26.1,137.5,26z"/>
		</g>
		<g>
			<path class="st2" d="M18.1,60.1h1c1.6,0,2.8,1.3,2.8,2.8V64c0,1.6-1.3,2.8-2.8,2.8h-1c-1.6,0-2.8-1.3-2.8-2.8v-1.1
				C15.3,61.4,16.6,60.1,18.1,60.1z"/>
			<path class="st2" d="M18.1,74.4h7.7c1.6,0,2.8,1.3,2.8,2.8v1.1c0,1.6-1.3,2.8-2.8,2.8h-7.7c-1.6,0-2.8-1.3-2.8-2.8v-1.1
				C15.3,75.6,16.6,74.4,18.1,74.4z"/>
			<path class="st2" d="M35,60.1h12.7c1.9,0,3.3,1.5,3.3,3.3v0.1c0,1.9-1.5,3.3-3.3,3.3H35c-1.9,0-3.3-1.5-3.3-3.3v-0.1
				C31.7,61.6,33.2,60.1,35,60.1z"/>
			<path class="st2" d="M24.3,45H49c1.6,0,2.8,1.3,2.8,2.8v1.1c0,1.6-1.3,2.8-2.8,2.8H24.3c-1.6,0-2.8-1.3-2.8-2.8v-1.1
				C21.4,46.3,22.7,45,24.3,45z"/>
			<path class="st2" d="M60.1,45h2.5c1.6,0,2.8,1.3,2.8,2.8v1.1c0,1.6-1.3,2.8-2.8,2.8h-2.5c-1.6,0-2.8-1.3-2.8-2.8v-1.1
				C57.3,46.3,58.5,45,60.1,45z"/>
			<path class="st2" d="M40.1,74.4h23.5c1.6,0,2.8,1.3,2.8,2.8v1.1c0,1.6-1.3,2.8-2.8,2.8H40.1c-1.6,0-2.8-1.3-2.8-2.8v-1.1
				C37.3,75.6,38.5,74.4,40.1,74.4z"/>
			<path class="st2" d="M62.7,59.7h30c1.6,0,2.8,1.3,2.8,2.8v1.1c0,1.6-1.3,2.8-2.8,2.8h-30c-1.6,0-2.8-1.3-2.8-2.8v-1.1
				C59.8,60.9,61.1,59.7,62.7,59.7z"/>
			<path class="st2" d="M91.5,74.4h1.1c1.6,0,2.8,1.3,2.8,2.8v1.1c0,1.6-1.3,2.8-2.8,2.8h-1.1c-1.6,0-2.8-1.3-2.8-2.8v-1.1
				C88.7,75.6,90,74.4,91.5,74.4z"/>
			<path class="st2" d="M77.3,45h15.5c1.6,0,2.8,1.3,2.8,2.8v1.1c0,1.6-1.3,2.8-2.8,2.8H77.3c-1.6,0-2.8-1.3-2.8-2.8v-1.1
				C74.4,46.3,75.7,45,77.3,45z"/>
			<path class="st2" d="M93,30.2H17.6C7.9,30.2,0,38.1,0,47.8v30.4C0,88,7.9,95.9,17.6,95.9H93c9.7,0,17.6-7.9,17.6-17.6l0,0V47.8
				C110.6,38.1,102.7,30.2,93,30.2L93,30.2z M103.4,78.5c0,5.9-4.8,10.8-10.8,10.8l0,0H18.5c-5.9,0-10.8-4.8-10.8-10.7l0,0v-30
				c0-5.9,4.8-10.8,10.8-10.8l0,0h74.1c5.9,0,10.8,4.8,10.8,10.8l0,0V78.5z"/>
			<path class="st2" d="M18.1,60.1h1c1.6,0,2.8,1.3,2.8,2.8V64c0,1.6-1.3,2.8-2.8,2.8h-1c-1.6,0-2.8-1.3-2.8-2.8v-1.1
				C15.3,61.4,16.6,60.1,18.1,60.1z"/>
			<path class="st2" d="M18.1,74.4h7.7c1.6,0,2.8,1.3,2.8,2.8v1.1c0,1.6-1.3,2.8-2.8,2.8h-7.7c-1.6,0-2.8-1.3-2.8-2.8v-1.1
				C15.3,75.6,16.6,74.4,18.1,74.4z"/>
			<path class="st2" d="M35,60.1h12.7c1.9,0,3.3,1.5,3.3,3.3v0.1c0,1.9-1.5,3.3-3.3,3.3H35c-1.9,0-3.3-1.5-3.3-3.3v-0.1
				C31.7,61.6,33.2,60.1,35,60.1z"/>
			<path class="st2" d="M24.3,45H49c1.6,0,2.8,1.3,2.8,2.8v1.1c0,1.6-1.3,2.8-2.8,2.8H24.3c-1.6,0-2.8-1.3-2.8-2.8v-1.1
				C21.4,46.3,22.7,45,24.3,45z"/>
			<path class="st2" d="M60.1,45h2.5c1.6,0,2.8,1.3,2.8,2.8v1.1c0,1.6-1.3,2.8-2.8,2.8h-2.5c-1.6,0-2.8-1.3-2.8-2.8v-1.1
				C57.3,46.3,58.5,45,60.1,45z"/>
			<path class="st2" d="M40.1,74.4h23.5c1.6,0,2.8,1.3,2.8,2.8v1.1c0,1.6-1.3,2.8-2.8,2.8H40.1c-1.6,0-2.8-1.3-2.8-2.8v-1.1
				C37.3,75.6,38.5,74.4,40.1,74.4z"/>
			<path class="st2" d="M62.7,59.7h30c1.6,0,2.8,1.3,2.8,2.8v1.1c0,1.6-1.3,2.8-2.8,2.8h-30c-1.6,0-2.8-1.3-2.8-2.8v-1.1
				C59.8,60.9,61.1,59.7,62.7,59.7z"/>
			<path class="st2" d="M91.5,74.4h1.1c1.6,0,2.8,1.3,2.8,2.8v1.1c0,1.6-1.3,2.8-2.8,2.8h-1.1c-1.6,0-2.8-1.3-2.8-2.8v-1.1
				C88.7,75.6,90,74.4,91.5,74.4z"/>
			<path class="st2" d="M77.3,45h15.5c1.6,0,2.8,1.3,2.8,2.8v1.1c0,1.6-1.3,2.8-2.8,2.8H77.3c-1.6,0-2.8-1.3-2.8-2.8v-1.1
				C74.4,46.3,75.7,45,77.3,45z"/>
			<path class="st2" d="M77.3,45h15.5c1.6,0,2.8,1.3,2.8,2.8v1.1c0,1.6-1.3,2.8-2.8,2.8H77.3c-1.6,0-2.8-1.3-2.8-2.8v-1.1
				C74.4,46.3,75.7,45,77.3,45z"/>
			<path class="st2" d="M40.1,74.4h23.5c1.6,0,2.8,1.3,2.8,2.8v1.1c0,1.6-1.3,2.8-2.8,2.8H40.1c-1.6,0-2.8-1.3-2.8-2.8v-1.1
				C37.3,75.6,38.5,74.4,40.1,74.4z"/>
			<path class="st2" d="M18.1,74.4h7.7c1.6,0,2.8,1.3,2.8,2.8v1.1c0,1.6-1.3,2.8-2.8,2.8h-7.7c-1.6,0-2.8-1.3-2.8-2.8v-1.1
				C15.3,75.6,16.6,74.4,18.1,74.4z"/>
			<path class="st2" d="M60.1,45h2.5c1.6,0,2.8,1.3,2.8,2.8v1.1c0,1.6-1.3,2.8-2.8,2.8h-2.5c-1.6,0-2.8-1.3-2.8-2.8v-1.1
				C57.3,46.3,58.5,45,60.1,45z"/>
			<path class="st2" d="M91.5,74.4h1.1c1.6,0,2.8,1.3,2.8,2.8v1.1c0,1.6-1.3,2.8-2.8,2.8h-1.1c-1.6,0-2.8-1.3-2.8-2.8v-1.1
				C88.7,75.6,90,74.4,91.5,74.4z"/>
			<path class="st2" d="M62.7,59.7h30c1.6,0,2.8,1.3,2.8,2.8v1.1c0,1.6-1.3,2.8-2.8,2.8h-30c-1.6,0-2.8-1.3-2.8-2.8v-1.1
				C59.8,60.9,61.1,59.7,62.7,59.7z"/>
			<path class="st2" d="M24.3,45H49c1.6,0,2.8,1.3,2.8,2.8v1.1c0,1.6-1.3,2.8-2.8,2.8H24.3c-1.6,0-2.8-1.3-2.8-2.8v-1.1
				C21.4,46.3,22.7,45,24.3,45z"/>
			<path class="st2" d="M18.1,60.1h1c1.6,0,2.8,1.3,2.8,2.8V64c0,1.6-1.3,2.8-2.8,2.8h-1c-1.6,0-2.8-1.3-2.8-2.8v-1.1
				C15.3,61.4,16.6,60.1,18.1,60.1z"/>
			<path class="st2" d="M35,60.1h12.7c1.9,0,3.3,1.5,3.3,3.3v0.1c0,1.9-1.5,3.3-3.3,3.3H35c-1.9,0-3.3-1.5-3.3-3.3v-0.1
				C31.7,61.6,33.2,60.1,35,60.1z"/>
		</g>
		<g>
			<polygon class="st2" points="120.7,37.8 120.7,88.8 131.4,88.8 160.3,47.4 160.3,37.8 149.9,37.8 149.9,44.3 131.1,70.3 
				131.1,37.8 			"/>
			<polygon class="st2" points="149.6,67.1 164.6,88.8 151.9,88.8 142.9,75.8 149.1,66.5 			"/>
			<rect x="168.2" y="37.8" class="st2" width="35" height="10.5"/>
			<polygon class="st2" points="168.2,55.9 192.6,55.9 192.6,65.9 178.7,65.9 178.7,78.9 217.3,78.9 217.3,88.8 168.2,88.8 			"/>
			<polygon class="st2" points="206.6,37.8 206.6,62.9 221.3,71.7 221.3,88.8 231.6,88.8 231.6,71.5 236.1,69.1 216.7,57 
				216.7,37.8 			"/>
			<polygon class="st2" points="236.1,37.8 246.5,37.8 246.5,62.9 239.3,67.5 229.5,61.2 236.1,57.2 			"/>
			<polygon class="st2" points="250,50.7 250,88.8 260.7,88.8 260.7,72.6 290.1,57 290.1,37.8 250,37.8 250,48.3 279.8,48.3 
				279.8,50.3 260.5,61 260.5,50.6 			"/>
			<polygon class="st2" points="293.6,37.8 293.6,88.8 333.4,88.8 333.4,37.8 323.1,37.8 323.1,79.1 303.5,79.1 303.5,47.5 
				320.8,47.5 320.8,37.8 			"/>
			<rect x="337.5" y="37.8" class="st2" width="10.2" height="38"/>
			<rect x="337.5" y="79" class="st2" width="34.4" height="9.8"/>
			<polygon class="st2" points="353.2,75.8 379.9,37.8 390.5,37.8 390.5,41 372.8,65.6 380.1,65.6 380.1,59.4 390.5,45.6 
				390.5,88.8 380.3,88.8 380.3,75.8 			"/>
			<path class="st2" d="M394.1,37.8v51h10.2V73l29.6-16.2v-19H394.1z M423.7,50.6l-19.5,10V47.9h19.5V50.6z"/>
			<polygon class="st2" points="413.1,71.1 421.8,66.1 438.2,88.8 425.1,88.8 			"/>
			<rect x="439.4" y="50.5" class="st2" width="10.6" height="38.3"/>
			<polygon class="st2" points="439.4,47.9 439.4,37.8 464.5,37.8 464.5,88.8 454.7,88.8 454.7,47.9 			"/>
			<rect x="467.4" y="37.8" class="st2" width="11.7" height="10.1"/>
			<polygon class="st2" points="483,37.8 483,62.9 497.9,71.7 497.9,88.8 508.2,88.8 508.2,71.7 513,69 493.6,57.3 493.6,37.8 			
				"/>
			<polygon class="st2" points="512.5,37.8 522.6,37.8 522.6,63.3 515.6,67.4 505.5,61.3 512.5,57 			"/>
		</g>
	</g>
</g>
</svg>
