<svg id="Layer_5" data-name="Layer 5" xmlns="http://www.w3.org/2000/svg" viewBox="0 0 889.42 168.49"><defs><style>.cls-1{font-size:89.35px;font-family:Poppins-SemiBold, Poppins;font-weight:600;}.cls-1,.cls-2{fill:#fff;}</style></defs><text class="cls-1" transform="translate(197.29 115.5)">codepolarity io</text><path class="cls-2" d="M972.49,436.86a8.77,8.77,0,1,0,8.77,8.77A8.77,8.77,0,0,0,972.49,436.86Zm0,12.67a3.9,3.9,0,1,1,3.9-3.9A3.91,3.91,0,0,1,972.49,449.53Z" transform="translate(-188.08 -330.32)"/><path class="cls-2" d="M189.78,441.91a39.43,39.43,0,0,1,7.49-14.72,45.19,45.19,0,0,1,15.46-13.06A36.94,36.94,0,0,1,229,410.38c6.25,0,11.92.4,17.78,3a38.51,38.51,0,0,1,15.51,12.91c4,5.52,7.75,12.27,7.75,19.24v46.27H189s0-20.64,0-22c0-6.33-.32-12.67-.28-19A36.51,36.51,0,0,1,189.78,441.91Z" transform="translate(-188.08 -330.32)"/><path class="cls-2" d="M349.09,382.8a39.43,39.43,0,0,1-7.49,14.72,45.13,45.13,0,0,1-15.47,13.06,36.87,36.87,0,0,1-16.28,3.75c-6.25,0-11.92-.4-17.78-3a38.43,38.43,0,0,1-15.51-12.91c-4-5.52-7.76-12.27-7.76-19.23V333h81.08s0,20.64,0,22c0,6.33.31,12.67.28,19A36.45,36.45,0,0,1,349.09,382.8Z" transform="translate(-188.08 -330.32)"/><path class="cls-2" d="M234.66,330.45c4.34.47,8.76,2.49,12.59,4.48,10.74,5.6,18.88,15.07,21.18,27.15a42.72,42.72,0,0,1,.72,6.77v42.86H188.08V330.32h43.85A25.67,25.67,0,0,1,234.66,330.45Z" transform="translate(-188.08 -330.32)"/><path class="cls-2" d="M304.21,494.14c-4.35-.45-8.78-2.44-12.62-4.41-10.77-5.53-19-15-21.34-27a44,44,0,0,1-.76-6.77l-.25-42.86,81.08-.47.47,81.39-27.07.15-16.78.1A25.53,25.53,0,0,1,304.21,494.14Z" transform="translate(-188.08 -330.32)"/></svg>