<?xml version="1.0" encoding="utf-8"?>
<!-- Generator: Adobe Illustrator 24.3.0, SVG Export Plug-In . SVG Version: 6.00 Build 0)  -->
<svg version="1.1" id="Layer_5" xmlns="http://www.w3.org/2000/svg" xmlns:xlink="http://www.w3.org/1999/xlink" x="0px" y="0px"
	 viewBox="0 0 889.4 168.5" style="enable-background:new 0 0 889.4 168.5;" xml:space="preserve">
<style type="text/css">
	.st0{fill:#1D4DB6;}
	.st1{font-family:'Poppins-SemiBold';}
	.st2{font-size:89.35px;}
</style>
<text transform="matrix(1 0 0 1 197.29 115.5)" class="st0 st1 st2">codepolarity io</text>
<path class="st0" d="M784.4,106.5c-4.8,0-8.8,3.9-8.8,8.8c0,4.8,3.9,8.8,8.8,8.8c4.8,0,8.8-3.9,8.8-8.8S789.3,106.5,784.4,106.5
	L784.4,106.5z M784.4,119.2c-2.2,0-3.9-1.7-3.9-3.9s1.7-3.9,3.9-3.9c2.2,0,3.9,1.7,3.9,3.9C788.3,117.5,786.6,119.2,784.4,119.2z"/>
<path class="st0" d="M1.7,111.6c1.4-5.4,4-10.4,7.5-14.7c4.1-5.5,9.4-9.9,15.5-13.1c5.1-2.5,10.6-3.8,16.3-3.8
	c6.2,0,11.9,0.4,17.8,3c6.2,2.8,11.6,7.3,15.5,12.9c4,5.5,7.8,12.3,7.8,19.2v46.3h-81c0,0,0-20.6,0-22c0-6.3-0.3-12.7-0.3-19
	C0.6,117.5,1,114.5,1.7,111.6z"/>
<path class="st0" d="M161,52.5c-1.4,5.4-4,10.4-7.5,14.7c-4.1,5.5-9.4,9.9-15.5,13.1c-5.1,2.5-10.6,3.8-16.3,3.8
	c-6.2,0-11.9-0.4-17.8-3c-6.2-2.8-11.6-7.3-15.5-12.9c-4-5.5-7.8-12.3-7.8-19.2V2.7h81.1c0,0,0,20.6,0,22c0,6.3,0.3,12.7,0.3,19
	C162.1,46.6,161.7,49.6,161,52.5z"/>
<path class="st0" d="M46.6,0.1c4.3,0.5,8.8,2.5,12.6,4.5c10.7,5.6,18.9,15.1,21.2,27.1c0.4,2.2,0.7,4.5,0.7,6.8v42.9H0V0h43.8
	C44.8,0,45.7,0,46.6,0.1z"/>
<path class="st0" d="M116.1,163.8c-4.4-0.5-8.8-2.4-12.6-4.4c-10.8-5.5-19-15-21.3-27c-0.4-2.2-0.7-4.5-0.8-6.8l-0.2-42.9l81.1-0.5
	l0.5,81.4l-27.1,0.1l-16.8,0.1C117.9,164,117,163.9,116.1,163.8z"/>
</svg>
