<?xml version="1.0" encoding="utf-8"?>
<!-- Generator: Adobe Illustrator 24.3.0, SVG Export Plug-In . SVG Version: 6.00 Build 0)  -->
<svg version="1.1" id="Layer_1" xmlns="http://www.w3.org/2000/svg" xmlns:xlink="http://www.w3.org/1999/xlink" x="0px" y="0px"
	 viewBox="0 0 800 800" style="enable-background:new 0 0 800 800;" xml:space="preserve">
<style type="text/css">
	.st0{fill:#FFFFFF;}
	.st1{fill:none;}
	.st2{font-family:'ArialMT';}
	.st3{font-size:636.291px;}
</style>
<g id="Layer_1_1_">
</g>
<g id="Layer_2_1_">
	<g>
		<path class="st0" d="M-848.4,112.9v523.5c0,25.1,20.5,45.6,45.6,45.6V112.9c0-12.7,10.3-22.6,22.6-22.6h568.8
			c0-25.1-20.5-45.6-45.6-45.6h-523.2C-818,44.7-848.4,75.1-848.4,112.9z"/>
		<path class="st0" d="M-689,135.9c-37.8,0-68.2,30.4-68.2,68.2v500.5c0,37.8,30.4,68.2,68.2,68.2l0,0h277.1
			c18,0,35.3-7.1,48.1-20.1L-140,529c12.7-12.7,20.1-30,20.1-48.1V203.8c0-37.8-30.4-68.2-68.2-68.2H-689V135.9z M-416.1,522.6
			c0-25.1,20.5-45.6,45.6-45.6h200.1c6.4,0,11.3,4.9,11.3,11.3c0,3.2-1.1,6-3.2,8.1l-234.4,234.4c-4.6,4.6-11.7,4.6-16.3,0
			c-2.1-2.1-3.2-4.9-3.2-8.1L-416.1,522.6L-416.1,522.6z"/>
		<rect x="-10.6" y="114.3" class="st1" width="1650.8" height="498.1"/>
		<text transform="matrix(1 0 0 1 -10.5776 566.1877)" class="st0 st2 st3">Notes</text>
	</g>
</g>
</svg>
