<?xml version="1.0" encoding="utf-8"?>
<!-- Generator: Adobe Illustrator 24.3.0, SVG Export Plug-In . SVG Version: 6.00 Build 0)  -->
<svg version="1.1" id="Layer_1" xmlns="http://www.w3.org/2000/svg" xmlns:xlink="http://www.w3.org/1999/xlink" x="0px" y="0px"
	 viewBox="0 0 800 800" style="enable-background:new 0 0 800 800;" xml:space="preserve">
<style type="text/css">
	.st0{fill:#FFFFFF;}
	.st1{fill-rule:evenodd;clip-rule:evenodd;fill:#FFFFFF;}
	.st2{enable-background:new    ;}
</style>
<g>
	<g>
		<path class="st0" d="M-821,503.5l19.9,74.1c23.2,86.5,34.8,129.8,61.1,157.8c20.8,22.2,47.6,37.7,77.2,44.6
			c37.4,8.7,80.7-2.9,167.2-26c86.5-23.2,129.8-34.8,157.8-61.1c2.3-2.2,4.6-4.4,6.8-6.7c-12.8-1.1-25.8-3.1-38.9-5.8
			c-26.7-5.3-58.4-13.8-96-23.9l-4.1-1.1l-1-0.3c-40.8-10.9-75-20.1-102.2-29.9c-28.7-10.3-54.7-23.1-76.8-43.8
			c-30.5-28.5-51.8-65.5-61.3-106.1c-6.9-29.5-4.9-58.4,0.5-88.4c5.1-28.7,14.4-63.2,25.4-104.4v0l20.5-76.5l0.7-2.7
			c-73.7,19.9-112.5,31.6-138.3,55.8c-22.2,20.8-37.7,47.6-44.6,77.2C-855.8,373.7-844.2,416.9-821,503.5z"/>
		<path class="st1" d="M-127.5,350l-19.9,74.1c-23.2,86.5-34.8,129.8-61.1,157.8c-20.8,22.2-47.6,37.7-77.2,44.6
			c-3.7,0.9-7.4,1.5-11.3,2c-35.1,4.3-78-7.1-155.9-28c-86.5-23.2-129.8-34.8-157.9-61.1c-22.2-20.8-37.7-47.6-44.6-77.2
			c-8.7-37.4,2.9-80.7,26-167.2l19.9-74.1c3.3-12.4,6.4-24,9.4-34.7c17.5-63.9,29.2-99.1,51.7-123.1c20.8-22.2,47.6-37.7,77.2-44.6
			c37.4-8.7,80.7,2.9,167.2,26c86.5,23.2,129.8,34.8,157.8,61.1c22.2,20.8,37.7,47.6,44.6,77.2C-92.7,220.2-104.3,263.4-127.5,350z
			 M-502.7,315.1c4.1-15.4,19.9-24.5,35.2-20.3l185.3,49.7c15.4,4.1,24.5,19.9,20.3,35.2c-4.1,15.4-19.9,24.5-35.2,20.3l-185.3-49.7
			C-497.7,346.2-506.8,330.4-502.7,315.1z M-532.5,426.2c4.1-15.4,19.9-24.5,35.2-20.3l111.2,29.8c15.4,4.1,24.5,19.9,20.3,35.2
			c-4.1,15.4-19.9,24.5-35.2,20.4l-111.2-29.8C-527.5,457.4-536.6,441.6-532.5,426.2z"/>
	</g>
	<g>
		<g class="st2">
			<path class="st0" d="M367.7,598.5h-79L89.2,291.6c-4-6.2-7.5-11.9-10.5-17.1c-3-5.2-5.4-9.9-7.2-14.1h-1.5
				c0.8,6,1.4,14.3,1.8,24.9c0.4,10.6,0.6,23.6,0.6,38.9v274.2H2.1V169.2h84.4l193.1,300c4.2,6.4,7.9,12.3,11.2,17.7
				c3.3,5.4,5.9,10.2,7.9,14.4h1.2c-0.8-5.8-1.4-13.7-1.8-23.8c-0.4-10.1-0.6-22.5-0.6-37.3v-271h70.1V598.5z"/>
			<path class="st0" d="M612,606c-49.3,0-88.3-14.7-117.1-44.2c-28.7-29.4-43.1-68.8-43.1-118.1c0.2-52.3,15.1-93.2,44.8-122.6
				c29.6-29.4,70-44.2,121.1-44.2c49.1-0.2,87.6,14.3,115.4,43.4c27.8,29.1,41.8,68.6,41.8,118.3c0,51.1-14.7,91.8-44,122
				C701.5,590.9,661.9,606,612,606z M615.3,549.4c28.3,0,49.9-9.3,64.7-28c14.8-18.7,22.2-45.7,22.2-81c0-34.7-7.4-61.2-22.3-79.5
				c-14.9-18.3-36.5-27.4-64.8-27.4c-28.1,0-50.3,9.6-66.3,28.9c-16.1,19.3-24.1,46-24.1,80.1c0,34.1,7.9,60.5,23.8,79
				S586.5,549.4,615.3,549.4z"/>
			<path class="st0" d="M1022.8,594c-9,4-18.5,6.9-28.4,8.7c-10,1.8-20.7,2.7-32,2.7c-29.3,0-51.8-7.7-67.5-23.2
				c-15.7-15.5-23.5-38.5-23.5-69V339.8h-52.4v-55.4h52.4v-71.3l71.3-21.6v92.8h75.1v55.4h-75.1v167.1c0,15.6,2.8,26.8,8.5,33.5
				c5.7,6.8,14.4,10.2,26.2,10.2c5.8,0,11.3-0.6,16.5-1.9c5.2-1.3,9.9-3,14.1-5.2L1022.8,594z"/>
			<path class="st0" d="M1350,459.9h-214.4c1.4,29.7,10,52.4,25.9,68c15.9,15.6,38.3,23.4,67.2,23.4c11.4,0,24.6-2.3,39.7-7
				c15.1-4.7,30.1-12.3,45.1-22.9l31.7,44.6c-19.8,14-39.7,24.2-59.9,30.5c-20.2,6.4-42.3,9.6-66.5,9.6
				c-48.7,0-86.6-14.1-113.8-42.2c-27.1-28.1-40.8-67.6-41-118.3c0-50.3,14.1-91,42.2-122c28.1-31,64.2-46.6,108.1-46.6
				c42.3,0,75.5,13.2,99.5,39.7c24.1,26.5,36.1,63.9,36.1,112.4V459.9z M1281.7,410.8c-0.2-26.9-6.2-47.3-18-61.1
				c-11.8-13.8-28.4-20.7-50-20.7c-20.4,0-37.6,7.4-51.8,22.2c-14.2,14.8-22.9,34.6-26,59.6H1281.7z"/>
			<path class="st0" d="M1393.1,574l31.1-50.3c12,8.4,24.8,15.2,38.5,20.4c13.7,5.2,28.7,7.8,45.1,7.8c17.6,0,31.2-3.2,41-9.6
				c9.8-6.4,14.7-16.1,14.7-29c0-10.4-4.1-19-12.4-25.7c-8.3-6.8-22-12.5-41.2-17.1c-39.1-9.2-66.5-21.4-82.2-36.5
				c-15.7-15.2-23.5-35.1-23.5-59.9c0-28.5,11.2-51.8,33.7-69.9c22.5-18.1,51.4-27.1,87-27.1c17.6,0,34.3,2.2,50.3,6.7
				c16,4.5,31.4,11.6,46.4,21.4l-28.1,48.8c-13.4-8.4-25.6-14.4-36.7-18c-11.1-3.6-22.5-5.4-34.3-5.4c-17,0-30.2,3.2-39.7,9.6
				c-9.5,6.4-14.2,15.3-14.2,26.6c0,11.4,4.5,19.9,13.6,25.6c9.1,5.7,24.9,11.2,47.5,16.6c34.1,8.2,59.1,20,75,35.3
				c15.9,15.4,23.8,36,23.8,62c0,30.1-11.1,54.3-33.4,72.5c-22.3,18.2-52.2,27.2-90,27.2c-20.6,0-40.1-2.7-58.7-8.1
				C1427.8,592.5,1410.1,584.5,1393.1,574z"/>
		</g>
	</g>
</g>
</svg>
