<svg id="Layer_1" data-name="Layer 1" xmlns="http://www.w3.org/2000/svg" viewBox="0 0 2692.56 557.16"><defs><style>.cls-1{fill:#fff;}</style></defs><path class="cls-1" d="M-565.53,191.15c-2-.06-3.92-.08-5.89-.08-115.39,0-208.94,93.54-208.94,208.93s93.55,208.93,208.94,208.93S-362.49,515.39-362.49,400c0-2,0-3.94-.08-5.89L-301,332.59A279.47,279.47,0,0,1-292.84,400c0,153.86-124.72,278.58-278.58,278.58S-850,553.86-850,400s124.72-278.58,278.58-278.58A279.47,279.47,0,0,1-504,129.63Z" transform="translate(850 -121.42)"/><path class="cls-1" d="M-710.71,400A139.35,139.35,0,0,1-606.24,265.1v74.57A69.62,69.62,0,0,0-641.07,400a69.65,69.65,0,0,0,69.65,69.64,69.61,69.61,0,0,0,60.33-34.82h74.57a139.35,139.35,0,0,1-134.9,104.47A139.29,139.29,0,0,1-710.71,400Z" transform="translate(850 -121.42)"/><path class="cls-1" d="M-362.49,191.07l-34.82-69.65L-501.78,225.89v55.22L-578.63,358l49.24,49.24,76.86-76.85h55.22l104.47-104.47Z" transform="translate(850 -121.42)"/><path class="cls-1" d="M-105.15,453.52v136.7h-66.57V197.39h123q68.49,0,104.37,31.64t35.89,92.18q0,58.91-40.41,95.6T-57.76,453.52Zm0-201.62V399.28h41.64q41.91,0,63.28-19.17t21.37-55.89q0-36.42-20.41-54.38T-60.5,251.9Z" transform="translate(850 -121.42)"/><path class="cls-1" d="M315.62,357.64q-5.47-1.36-10.68-2.19a77.87,77.87,0,0,0-12.05-.82q-34.25,0-53,25.89t-18.77,67.8v141.9H155.64V302.85h65.47v55.34h1.1q9.85-29.85,29.59-45.06t46.57-15.21a105.66,105.66,0,0,1,13.69.83,82.76,82.76,0,0,1,12.06,2.46Z" transform="translate(850 -121.42)"/><path class="cls-1" d="M593.4,590.22h-63V546.66H529.3q-14.53,24.93-36.3,37.67t-50,12.74q-39.74,0-65.2-23.15t-25.48-62.87q0-38.9,25.61-63.28T454.51,416l76.43-10.13v-6q0-29-15.2-42.46T474.51,344a124.44,124.44,0,0,0-41.78,7.53,154.43,154.43,0,0,0-41.23,22.6l-27.94-38.9a188.29,188.29,0,0,1,54.38-29.59Q446.29,296,479.71,296q57.26,0,85.47,28.49t28.22,85.74ZM530.94,473V448.86L469,457.08q-27.39,3.84-40.95,14.8t-13.56,32.05q0,20.54,12.73,32.32T460.54,548q31.5,0,50.95-21.09T530.94,473Z" transform="translate(850 -121.42)"/><path class="cls-1" d="M893.36,571.59A163.73,163.73,0,0,1,850.49,591a171.84,171.84,0,0,1-46.43,6q-66.3,0-105.88-38.9T658.6,453.25q0-72,41.36-114.65T811.18,296a175.06,175.06,0,0,1,44.11,5.2,167,167,0,0,1,40.26,16.71L869.8,363.4a116.35,116.35,0,0,0-28.08-11.92,114.52,114.52,0,0,0-29.72-3.7q-41.64,0-64.24,27.26t-22.6,72.73q0,46.85,24,72.18t61,25.34a99.68,99.68,0,0,0,26.71-4.11,107.6,107.6,0,0,0,29.73-14Z" transform="translate(850 -121.42)"/><path class="cls-1" d="M1110.32,586.11a113.15,113.15,0,0,1-26,7.94,164.91,164.91,0,0,1-29.31,2.47q-40.27,0-61.78-21.23t-21.5-63.15V353.53H923.77V302.85h47.94V237.66l65.2-19.73v84.92h68.76v50.68h-68.76V506.39q0,21.38,7.8,30.68t24,9.32a61.8,61.8,0,0,0,15.07-1.78,58.13,58.13,0,0,0,12.88-4.8Z" transform="translate(850 -121.42)"/><path class="cls-1" d="M1199.35,252.18q-17.8,0-29.45-11.24a36.92,36.92,0,0,1-11.64-27.66q0-17.26,11.64-28.22t29.45-11q17.81,0,29.59,11t11.78,28.22q0,16.71-11.78,27.8T1199.35,252.18Zm32.05,338h-65.19V302.85h65.19Z" transform="translate(850 -121.42)"/><path class="cls-1" d="M1539.31,571.59A163.73,163.73,0,0,1,1496.44,591a171.84,171.84,0,0,1-46.43,6q-66.3,0-105.88-38.9t-39.58-104.92q0-72,41.36-114.65T1457.13,296a175.06,175.06,0,0,1,44.11,5.2,167,167,0,0,1,40.26,16.71l-25.75,45.48a116.35,116.35,0,0,0-28.08-11.92,114.52,114.52,0,0,0-29.72-3.7q-41.64,0-64.24,27.26t-22.6,72.73q0,46.85,24,72.18t61,25.34a99.67,99.67,0,0,0,26.7-4.11,107.6,107.6,0,0,0,29.73-14Z" transform="translate(850 -121.42)"/><path class="cls-1" d="M1842.56,463.38H1646.42q1.92,40.83,23.7,62.19t61.5,21.37q15.62,0,36.3-6.44t41.22-21l29,40.82q-27.12,19.17-54.79,27.94t-60.81,8.77q-66.84,0-104.1-38.63T1581,450.23q0-69,38.63-111.63T1718.47,296q58.07,0,91.08,36.29t33,102.87Zm-62.45-44.92q-.28-37-16.44-55.89t-45.75-18.9q-27.95,0-47.39,20.27t-23.83,54.52Z" transform="translate(850 -121.42)"/></svg>